<svg width="225" height="31" viewBox="0 0 225 31" fill="none" xmlns="http://www.w3.org/2000/svg">
<path d="M7.66133 3.93811V0.486039H29.9656V3.93811H28.964C28.0935 3.93811 27.545 4.06331 27.3184 4.31372C27.0919 4.56413 26.9786 5.18419 26.9786 6.1739V19.696C26.9786 20.7334 27.0978 21.3773 27.3363 21.6277C27.5867 21.8662 28.2247 21.9854 29.2502 21.9854H29.9656L32.6128 29.3367L29.3575 30.4993C28.797 29.0684 27.9922 27.8641 26.9428 26.8863C25.8935 25.9204 24.2122 25.4375 21.8989 25.4375H11.0955C8.79414 25.4375 7.11878 25.9204 6.06945 26.8863C5.02012 27.8522 4.20927 29.0565 3.6369 30.4993L0.399475 29.3367L3.04666 21.9854H3.95886C5.13936 21.9854 5.92636 21.3713 6.31986 20.1431L10.7199 6.33488C10.8391 5.96523 10.8988 5.66712 10.8988 5.44056C10.8988 4.43892 10.1893 3.93811 8.77029 3.93811H7.66133ZM20.8078 21.5383V4.40315H15.3882L10.8272 19.9106C10.7437 20.1849 10.702 20.4174 10.702 20.6082C10.702 21.2282 11.2803 21.5383 12.437 21.5383H20.8078ZM33.7396 0.486039H54.5593L57.4033 8.37392L54.1658 9.53653C53.6173 8.24872 52.9734 7.21131 52.2341 6.42431C51.5067 5.63731 50.6959 5.1186 49.8016 4.8682C48.9192 4.60586 47.8877 4.4747 46.7072 4.4747H42.8974V10.6991H44.1495C45.0915 10.6991 45.7235 10.6336 46.0454 10.5024C46.3793 10.3593 46.6178 10.1447 46.7609 9.85849C46.904 9.56038 46.9755 8.97609 46.9755 8.10563V7.15765H50.1593V17.7106H46.9755V16.6374C46.9755 15.91 46.8861 15.3794 46.7072 15.0455C46.5403 14.7117 46.3078 14.4851 46.0097 14.3658C45.7116 14.2466 45.0498 14.187 44.0243 14.187H42.8974V19.9106C42.8974 20.5188 42.9273 20.8884 42.9869 21.0196C43.0465 21.1507 43.1598 21.2521 43.3267 21.3236C43.5056 21.3952 43.8812 21.431 44.4536 21.431H46.5463C48.1083 21.431 49.426 21.2104 50.4991 20.7692C51.5723 20.316 52.5263 19.5946 53.361 18.6049C54.2076 17.6033 54.8575 16.4168 55.3106 15.0455L58.5838 16.1724L55.3106 25.4375H33.7396V21.9854H34.3657C35.2004 21.9854 35.7608 21.9258 36.047 21.8066C36.3332 21.6873 36.5359 21.4787 36.6551 21.1805C36.7147 21.0017 36.7445 20.4949 36.7445 19.6602V6.06658C36.7445 5.32728 36.6909 4.84435 36.5836 4.61779C36.4882 4.39123 36.3332 4.22429 36.1185 4.11697C35.9039 3.99773 35.4806 3.93811 34.8486 3.93811H33.7396V0.486039ZM60.2114 0.486039H73.3937C75.0631 0.486039 76.4463 0.658941 77.5433 1.00474C78.6523 1.33862 79.6002 1.85136 80.3872 2.54297C81.1862 3.23458 81.8003 4.05735 82.2295 5.01129C82.6588 5.9533 82.8734 6.95494 82.8734 8.01619C82.8734 10.1506 82.0507 11.9393 80.4051 13.3821C78.7715 14.8249 76.5119 15.5463 73.6262 15.5463H69.3692V20.2147C69.3692 20.799 69.411 21.1686 69.4945 21.3236C69.6018 21.5502 69.7627 21.7171 69.9774 21.8245C70.2039 21.9318 70.5796 21.9854 71.1042 21.9854H72.3742V25.4375H60.2114V21.9854H61.0521C61.7914 21.9854 62.2803 21.9318 62.5188 21.8245C62.7573 21.7171 62.9302 21.5502 63.0375 21.3236C63.1448 21.0852 63.1985 20.6022 63.1985 19.8748V6.15601C63.1985 5.39286 63.1508 4.89204 63.0554 4.65356C62.96 4.40315 62.805 4.22429 62.5903 4.11697C62.3876 3.99773 61.9941 3.93811 61.4098 3.93811H60.2114V0.486039ZM69.3692 4.56413V11.6471H71.4977C72.7975 11.6471 73.7514 11.516 74.3595 11.2536C74.9677 10.9794 75.4566 10.568 75.8262 10.0195C76.1959 9.45903 76.3807 8.79723 76.3807 8.03408C76.3807 6.88935 75.9395 5.98311 75.0571 5.31535C74.4013 4.81454 73.4294 4.56413 72.1416 4.56413H69.3692ZM84.358 0.486039H95.6443L99.9728 15.6716L104.462 0.486039H115.945V3.93811H114.711C114.043 3.93811 113.578 4.0812 113.316 4.36738C113.066 4.64163 112.94 5.1663 112.94 5.94138V20.1074C112.94 20.7274 112.976 21.115 113.048 21.27C113.155 21.5085 113.304 21.6754 113.495 21.7708C113.757 21.9139 114.103 21.9854 114.532 21.9854H115.945V25.4375H103.944V21.9854H104.874C105.553 21.9854 106.012 21.9318 106.251 21.8245C106.489 21.7171 106.662 21.5562 106.77 21.3415C106.889 21.115 106.948 20.7036 106.948 20.1074V4.76088L100.867 25.4375H97.415L91.5304 5.42267V20.5903C91.5304 20.9361 91.5901 21.2044 91.7093 21.3952C91.8405 21.586 92.0193 21.735 92.2459 21.8423C92.4844 21.9377 92.86 21.9854 93.3727 21.9854H94.5711V25.4375H84.358V21.9854H85.3596C85.9916 21.9854 86.4209 21.9318 86.6475 21.8245C86.8859 21.7052 87.0588 21.5264 87.1662 21.2879C87.2854 21.0375 87.345 20.5843 87.345 19.9285V5.94138C87.345 5.29747 87.3033 4.88012 87.2198 4.68933C87.1125 4.427 86.9515 4.23621 86.7369 4.11697C86.5223 3.99773 86.1824 3.93811 85.7174 3.93811H84.358V0.486039ZM127.804 0.486039H133.402L140.897 19.7496C141.302 20.7751 141.66 21.4071 141.97 21.6456C142.292 21.8841 142.876 21.9974 143.723 21.9854V25.4375H131.918V21.9854L132.633 21.9675C133.289 21.9675 133.748 21.8841 134.011 21.7171C134.273 21.5383 134.404 21.3236 134.404 21.0732C134.404 20.8586 134.291 20.4174 134.064 19.7496L133.331 17.4781H125.729L124.799 20C124.608 20.5366 124.513 20.8884 124.513 21.0553C124.513 21.2461 124.578 21.419 124.71 21.574C124.853 21.7291 125.079 21.8423 125.389 21.9139C125.592 21.9616 126.152 21.9854 127.071 21.9854V25.4375H117.412V21.9854C118.032 21.9854 118.485 21.9318 118.771 21.8245C119.058 21.7171 119.29 21.5562 119.469 21.3415C119.66 21.1269 119.868 20.7274 120.095 20.1431L127.804 0.486039ZM127.035 13.9187H132.025L129.593 7.05033L127.035 13.9187ZM147.801 0.486039H150.323L150.913 1.55922C152.785 0.557585 154.872 0.0567668 157.173 0.0567668C159.856 0.0567668 162.086 0.623168 163.863 1.75597C165.64 2.87685 166.528 4.44489 166.528 6.46008C166.528 9.23843 164.966 11.1702 161.842 12.2553C165.586 13.0065 167.458 15.0098 167.458 18.2651C167.458 20.5784 166.433 22.4266 164.382 23.8098C162.331 25.1931 159.826 25.8847 156.869 25.8847C153.519 25.8847 150.925 25.2229 149.089 23.8993C147.264 22.5638 145.708 20.7632 144.42 18.4976L147.193 16.4407C149.613 19.9822 152.571 21.7529 156.064 21.7529C157.793 21.7529 159.045 21.3713 159.821 20.6082C160.596 19.845 160.983 18.9209 160.983 17.8358C160.983 16.703 160.619 15.8266 159.892 15.2065C159.165 14.5745 157.781 14.2585 155.742 14.2585H152.505V10.5918H155.242C157.281 10.5918 158.664 10.3116 159.391 9.75117C160.119 9.17881 160.482 8.39777 160.482 7.40806C160.482 6.25141 160.047 5.39882 159.177 4.85031C158.318 4.28987 157.281 4.00965 156.064 4.00965C154.288 4.00965 152.815 4.59394 151.646 5.76251C150.49 6.91916 149.494 8.46931 148.659 10.413L145.333 9.4471L147.801 0.486039ZM183.752 0.0567668C187.711 0.0567668 190.913 1.26111 193.357 3.66981C195.814 6.07851 197.042 9.17284 197.042 12.9528C197.042 15.4927 196.482 17.7464 195.361 19.7139C194.24 21.6814 192.69 23.2017 190.71 24.2749C188.743 25.3361 186.364 25.8668 183.574 25.8668C179.889 25.8668 176.872 24.8532 174.523 22.8261C171.685 20.3816 170.266 17.1144 170.266 13.0244C170.266 9.22054 171.506 6.10832 173.987 3.6877C176.479 1.26708 179.734 0.0567668 183.752 0.0567668ZM183.824 4.02754C181.928 4.02754 180.42 4.73703 179.299 6.15601C177.892 7.94465 177.188 10.252 177.188 13.078C177.188 15.9041 177.844 18.1399 179.156 19.7854C180.288 21.1925 181.785 21.896 183.645 21.896C185.517 21.896 187.014 21.1925 188.135 19.7854C189.458 18.1041 190.12 15.8564 190.12 13.0423C190.12 11.0628 189.834 9.3994 189.261 8.05197C188.701 6.70453 187.938 5.69693 186.972 5.02917C186.006 4.36142 184.957 4.02754 183.824 4.02754ZM210.51 7.05033L205.717 20C205.526 20.5128 205.431 20.8646 205.431 21.0553C205.431 21.4011 205.598 21.6456 205.932 21.7887C206.265 21.9199 206.939 21.9854 207.953 21.9854V25.4375H198.33V21.9854C199.153 21.9854 199.725 21.8722 200.047 21.6456C200.381 21.419 200.703 20.9182 201.013 20.1431L208.722 0.486039H214.284L221.815 19.7496C222.16 20.632 222.482 21.2282 222.78 21.5383C223.091 21.8364 223.711 21.9854 224.641 21.9854V25.4375H212.836V21.9854L213.551 21.9675C214.732 21.9437 215.322 21.6456 215.322 21.0732C215.322 20.8347 215.209 20.3935 214.982 19.7496L210.51 7.05033Z" fill="#D2AE6D"/>
<path d="M7.66133 3.93811H6.93287V4.66657H7.66133V3.93811ZM7.66133 0.486039V-0.242426H6.93287V0.486039H7.66133ZM29.9656 0.486039H30.6941V-0.242426H29.9656V0.486039ZM29.9656 3.93811V4.66657H30.6941V3.93811H29.9656ZM27.3363 21.6277L26.8088 22.1301L26.8211 22.143L26.8339 22.1552L27.3363 21.6277ZM29.9656 21.9854L30.651 21.7386L30.4776 21.257H29.9656V21.9854ZM32.6128 29.3367L32.8578 30.0228L33.5456 29.7771L33.2982 29.0899L32.6128 29.3367ZM29.3575 30.4993L28.6792 30.765L28.9369 31.4231L29.6025 31.1854L29.3575 30.4993ZM26.9428 26.8863L27.4394 26.3533L27.4362 26.3503L26.9428 26.8863ZM6.06945 26.8863L5.5761 26.3503L6.06945 26.8863ZM3.6369 30.4993L3.3907 31.1849L4.05411 31.4232L4.31404 30.768L3.6369 30.4993ZM0.399475 29.3367L-0.285907 29.0899L-0.532926 29.7759L0.153266 30.0223L0.399475 29.3367ZM3.04666 21.9854V21.257H2.53472L2.36127 21.7386L3.04666 21.9854ZM6.31986 20.1431L7.01359 20.3654L7.01394 20.3643L6.31986 20.1431ZM10.7199 6.33488L10.0266 6.11123L10.0258 6.11371L10.7199 6.33488ZM20.8078 21.5383V22.2667H21.5363V21.5383H20.8078ZM20.8078 4.40315H21.5363V3.67469H20.8078V4.40315ZM15.3882 4.40315V3.67469H14.8432L14.6894 4.1976L15.3882 4.40315ZM10.8272 19.9106L11.5242 20.1227L11.5261 20.1162L10.8272 19.9106ZM8.3898 3.93811V0.486039H6.93287V3.93811H8.3898ZM7.66133 1.2145H29.9656V-0.242426H7.66133V1.2145ZM29.2372 0.486039V3.93811H30.6941V0.486039H29.2372ZM29.9656 3.20964H28.964V4.66657H29.9656V3.20964ZM28.964 3.20964C28.5004 3.20964 28.0857 3.24237 27.7376 3.32181C27.4053 3.39766 27.0388 3.53699 26.7783 3.82498L27.8586 4.80246C27.8246 4.84004 27.8456 4.79156 28.0619 4.74221C28.2623 4.69644 28.5571 4.66657 28.964 4.66657V3.20964ZM26.7783 3.82498C26.5247 4.10525 26.41 4.4903 26.347 4.83565C26.2793 5.20601 26.2501 5.65691 26.2501 6.1739H27.7071C27.7071 5.70118 27.7345 5.34719 27.7802 5.09749C27.8303 4.82278 27.8856 4.7726 27.8586 4.80246L26.7783 3.82498ZM26.2501 6.1739V19.696H27.7071V6.1739H26.2501ZM26.2501 19.696C26.2501 20.2367 26.2807 20.7063 26.3517 21.0896C26.4176 21.4454 26.5381 21.8458 26.8088 22.1301L27.8638 21.1253C27.8961 21.1592 27.8377 21.1125 27.7843 20.8243C27.7361 20.5638 27.7071 20.1927 27.7071 19.696H26.2501ZM26.8339 22.1552C27.1171 22.4249 27.5145 22.5458 27.8687 22.6121C28.2496 22.6833 28.7151 22.7139 29.2502 22.7139V21.257C28.7597 21.257 28.3935 21.228 28.1364 21.1799C27.8528 21.1269 27.8059 21.069 27.8387 21.1002L26.8339 22.1552ZM29.2502 22.7139H29.9656V21.257H29.2502V22.7139ZM29.2802 22.2322L31.9274 29.5835L33.2982 29.0899L30.651 21.7386L29.2802 22.2322ZM32.3678 28.6507L29.1125 29.8133L29.6025 31.1854L32.8578 30.0228L32.3678 28.6507ZM30.0358 30.2337C29.4384 28.7086 28.5742 27.4107 27.4394 26.3533L26.4462 27.4192C27.4101 28.3174 28.1556 29.4283 28.6792 30.765L30.0358 30.2337ZM27.4362 26.3503C26.19 25.2033 24.2875 24.709 21.8989 24.709V26.166C24.1369 26.166 25.597 26.6376 26.4495 27.4223L27.4362 26.3503ZM21.8989 24.709H11.0955V26.166H21.8989V24.709ZM11.0955 24.709C8.71762 24.709 6.8217 25.2038 5.5761 26.3503L6.56279 27.4223C7.41587 26.6371 8.87065 26.166 11.0955 26.166V24.709ZM5.5761 26.3503C4.43925 27.3967 3.5689 28.6952 2.95977 30.2307L4.31404 30.768C4.84964 29.4178 5.60098 28.3076 6.56279 27.4223L5.5761 26.3503ZM3.88311 29.8137L0.645684 28.6511L0.153266 30.0223L3.3907 31.1849L3.88311 29.8137ZM1.08486 29.5835L3.73204 22.2322L2.36127 21.7386L-0.285907 29.0899L1.08486 29.5835ZM3.04666 22.7139H3.95886V21.257H3.04666V22.7139ZM3.95886 22.7139C4.68071 22.7139 5.33878 22.5235 5.88262 22.0992C6.42093 21.6791 6.78514 21.0784 7.01359 20.3654L5.62613 19.9209C5.46108 20.436 5.23504 20.7565 4.98635 20.9505C4.74319 21.1403 4.4175 21.257 3.95886 21.257V22.7139ZM7.01394 20.3643L11.414 6.55605L10.0258 6.11371L5.62578 19.922L7.01394 20.3643ZM11.4132 6.55852C11.5416 6.1604 11.6272 5.77836 11.6272 5.44056H10.1703C10.1703 5.55587 10.1367 5.77005 10.0266 6.11124L11.4132 6.55852ZM11.6272 5.44056C11.6272 4.74482 11.3666 4.12793 10.7867 3.71859C10.2533 3.34204 9.54328 3.20964 8.77029 3.20964V4.66657C9.41628 4.66657 9.7705 4.78458 9.94655 4.90885C10.0761 5.00033 10.1703 5.13466 10.1703 5.44056H11.6272ZM8.77029 3.20964H7.66133V4.66657H8.77029V3.20964ZM21.5363 21.5383V4.40315H20.0793V21.5383H21.5363ZM20.8078 3.67469H15.3882V5.13162H20.8078V3.67469ZM14.6894 4.1976L10.1284 19.7051L11.5261 20.1162L16.0871 4.6087L14.6894 4.1976ZM10.1303 19.6985C10.0353 20.0107 9.97355 20.3191 9.97355 20.6082H11.4305C11.4305 20.5157 11.4522 20.3591 11.5241 20.1227L10.1303 19.6985ZM9.97355 20.6082C9.97355 20.8807 10.0386 21.1533 10.1918 21.3998C10.3437 21.644 10.5569 21.822 10.7916 21.9478C11.2392 22.1878 11.8174 22.2667 12.437 22.2667V20.8098C11.8999 20.8098 11.6106 20.7338 11.4799 20.6637C11.4255 20.6345 11.4218 20.6187 11.4291 20.6304C11.4377 20.6444 11.4305 20.6457 11.4305 20.6082H9.97355ZM12.437 22.2667H20.8078V20.8098H12.437V22.2667ZM33.7396 0.486039V-0.242426H33.0112V0.486039H33.7396ZM54.5593 0.486039L55.2446 0.238964L55.0711 -0.242426H54.5593V0.486039ZM57.4033 8.37392L57.6495 9.05952L58.336 8.813L58.0886 8.12685L57.4033 8.37392ZM54.1658 9.53653L53.4956 9.82199L53.765 10.4545L54.4121 10.2221L54.1658 9.53653ZM52.2341 6.42431L51.6991 6.91876L51.7032 6.92307L52.2341 6.42431ZM49.8016 4.8682L49.594 5.56654L49.6052 5.56968L49.8016 4.8682ZM42.8974 4.4747V3.74623H42.169V4.4747H42.8974ZM42.8974 10.6991H42.169V11.4276H42.8974V10.6991ZM46.0454 10.5024L46.3203 11.1771L46.3324 11.172L46.0454 10.5024ZM46.7609 9.85849L47.4125 10.1843L47.4176 10.1737L46.7609 9.85849ZM46.9755 7.15765V6.42918H46.2471V7.15765H46.9755ZM50.1593 7.15765H50.8878V6.42918H50.1593V7.15765ZM50.1593 17.7106V18.4391H50.8878V17.7106H50.1593ZM46.9755 17.7106H46.2471V18.4391H46.9755V17.7106ZM46.7072 15.0455L46.0557 15.3713L46.0603 15.3805L46.0651 15.3895L46.7072 15.0455ZM42.8974 14.187V13.4585H42.169V14.187H42.8974ZM43.3267 21.3236L43.0398 21.9932L43.0479 21.9967L43.0562 22L43.3267 21.3236ZM50.4991 20.7692L50.7761 21.4429L50.7825 21.4403L50.4991 20.7692ZM53.361 18.6049L52.8046 18.1347L52.8041 18.1353L53.361 18.6049ZM55.3106 15.0455L55.5477 14.3567L54.8503 14.1167L54.6189 14.817L55.3106 15.0455ZM58.5838 16.1724L59.2706 16.415L59.5153 15.7226L58.8209 15.4836L58.5838 16.1724ZM55.3106 25.4375V26.166H55.8258L55.9974 25.6802L55.3106 25.4375ZM33.7396 25.4375H33.0112V26.166H33.7396V25.4375ZM33.7396 21.9854V21.257H33.0112V21.9854H33.7396ZM36.6551 21.1805L37.3315 21.4511L37.3394 21.4312L37.3462 21.4109L36.6551 21.1805ZM36.5836 4.61779L35.9122 4.90047L35.9184 4.9152L35.9252 4.92963L36.5836 4.61779ZM36.1185 4.11697L35.7647 4.75376L35.7786 4.76145L35.7927 4.76853L36.1185 4.11697ZM33.7396 3.93811H33.0112V4.66657H33.7396V3.93811ZM33.7396 1.2145H54.5593V-0.242426H33.7396V1.2145ZM53.8741 0.733115L56.718 8.621L58.0886 8.12685L55.2446 0.238964L53.8741 0.733115ZM57.1571 7.68832L53.9196 8.85094L54.4121 10.2221L57.6495 9.05952L57.1571 7.68832ZM54.8361 9.25108C54.2634 7.90666 53.5774 6.79033 52.7651 5.92555L51.7032 6.92307C52.3694 7.63229 52.9712 8.59077 53.4956 9.82199L54.8361 9.25108ZM52.7691 5.92987C51.9646 5.05938 51.0411 4.45878 49.998 4.16671L49.6052 5.56968C50.3507 5.77843 51.0489 6.21524 51.6992 6.91875L52.7691 5.92987ZM50.0092 4.16994C49.0435 3.88285 47.9393 3.74623 46.7072 3.74623V5.20316C47.8362 5.20316 48.7949 5.32888 49.594 5.56646L50.0092 4.16994ZM46.7072 3.74623H42.8974V5.20316H46.7072V3.74623ZM42.169 4.4747V10.6991H43.6259V4.4747H42.169ZM42.8974 11.4276H44.1495V9.97068H42.8974V11.4276ZM44.1495 11.4276C44.6349 11.4276 45.0554 11.4108 45.4052 11.3745C45.7431 11.3395 46.0631 11.2818 46.3203 11.177L45.7706 9.82777C45.7058 9.85415 45.5489 9.89487 45.2548 9.92538C44.9726 9.95467 44.6061 9.97068 44.1495 9.97068V11.4276ZM46.3324 11.172C46.8019 10.9708 47.1819 10.6453 47.4125 10.1843L46.1093 9.53271C46.0537 9.644 45.9568 9.74786 45.7585 9.83283L46.3324 11.172ZM47.4176 10.1737C47.5403 9.91808 47.6058 9.60474 47.6449 9.28523C47.6856 8.95343 47.704 8.55788 47.704 8.10563H46.2471C46.2471 8.52383 46.2297 8.85567 46.1988 9.10815C46.1664 9.37294 46.1246 9.50079 46.1042 9.54326L47.4176 10.1737ZM47.704 8.10563V7.15765H46.2471V8.10563H47.704ZM46.9755 7.88611H50.1593V6.42918H46.9755V7.88611ZM49.4308 7.15765V17.7106H50.8878V7.15765H49.4308ZM50.1593 16.9821H46.9755V18.4391H50.1593V16.9821ZM47.704 17.7106V16.6374H46.2471V17.7106H47.704ZM47.704 16.6374C47.704 15.8814 47.6163 15.1999 47.3494 14.7015L46.0651 15.3895C46.1559 15.5589 46.2471 15.9387 46.2471 16.6374H47.704ZM47.3588 14.7197C47.1259 14.2539 46.7705 13.8856 46.2802 13.6895L45.7391 15.0422C45.845 15.0846 45.9548 15.1694 46.0557 15.3713L47.3588 14.7197ZM46.2802 13.6895C46.0272 13.5883 45.698 13.5371 45.3551 13.5062C44.9942 13.4737 44.5485 13.4585 44.0243 13.4585V14.9154C44.5255 14.9154 44.9235 14.9301 45.2244 14.9572C45.5433 14.986 45.6941 15.0242 45.7391 15.0422L46.2802 13.6895ZM44.0243 13.4585H42.8974V14.9154H44.0243V13.4585ZM42.169 14.187V19.9106H43.6259V14.187H42.169ZM42.169 19.9106C42.169 20.2236 42.1766 20.4899 42.1937 20.7025C42.208 20.8793 42.2346 21.125 42.3237 21.321L43.65 20.7181C43.6724 20.7673 43.6722 20.7893 43.6649 20.7484C43.6592 20.7166 43.6523 20.664 43.6459 20.5854C43.6332 20.4284 43.6259 20.2058 43.6259 19.9106H42.169ZM42.3237 21.321C42.4766 21.6574 42.7511 21.8695 43.0398 21.9932L43.6137 20.6541C43.5892 20.6436 43.5898 20.6399 43.6023 20.6511C43.6087 20.6568 43.6172 20.6656 43.6262 20.6777C43.6353 20.6899 43.6434 20.7036 43.65 20.7181L42.3237 21.321ZM43.0562 22C43.2456 22.0758 43.4694 22.1099 43.6735 22.1293C43.8927 22.1502 44.1548 22.1594 44.4536 22.1594V20.7025C44.18 20.7025 43.968 20.6938 43.8116 20.6789C43.6402 20.6626 43.5867 20.643 43.5973 20.6473L43.0562 22ZM44.4536 22.1594H46.5463V20.7025H44.4536V22.1594ZM46.5463 22.1594C48.1724 22.1594 49.5904 21.9304 50.7761 21.4429L50.2222 20.0954C49.2616 20.4903 48.0443 20.7025 46.5463 20.7025V22.1594ZM50.7825 21.4403C51.9728 20.9377 53.0175 20.1421 53.9178 19.0746L52.8041 18.1353C52.0351 19.0471 51.1719 19.6944 50.2158 20.0981L50.7825 21.4403ZM53.9173 19.0752C54.8299 17.9955 55.5229 16.7249 56.0023 15.2741L54.6189 14.817C54.192 16.1088 53.5853 17.2111 52.8046 18.1347L53.9173 19.0752ZM55.0735 15.7343L58.3467 16.8612L58.8209 15.4836L55.5477 14.3567L55.0735 15.7343ZM57.8969 15.9297L54.6237 25.1948L55.9974 25.6802L59.2706 16.415L57.8969 15.9297ZM55.3106 24.709H33.7396V26.166H55.3106V24.709ZM34.4681 25.4375V21.9854H33.0112V25.4375H34.4681ZM33.7396 22.7139H34.3657V21.257H33.7396V22.7139ZM34.3657 22.7139C34.7978 22.7139 35.1743 22.6986 35.4891 22.6651C35.792 22.6329 36.0866 22.5793 36.3272 22.479L35.7668 21.1341C35.7212 21.1531 35.5924 21.1889 35.3349 21.2163C35.0893 21.2425 34.7682 21.257 34.3657 21.257V22.7139ZM36.3272 22.479C36.8011 22.2815 37.1424 21.9237 37.3315 21.4511L35.9787 20.91C35.9293 21.0336 35.8652 21.0931 35.7668 21.1341L36.3272 22.479ZM37.3462 21.4109C37.4107 21.2174 37.435 20.9536 37.4494 20.7091C37.4655 20.4354 37.473 20.084 37.473 19.6602H36.0161C36.0161 20.0711 36.0087 20.3905 35.995 20.6235C35.9795 20.8858 35.9592 20.9648 35.964 20.9502L37.3462 21.4109ZM37.473 19.6602V6.06658H36.0161V19.6602H37.473ZM37.473 6.06658C37.473 5.68235 37.4592 5.34757 37.4283 5.06946C37.3993 4.80833 37.349 4.53211 37.2419 4.30594L35.9252 4.92963C35.9215 4.92187 35.9305 4.93918 35.9436 4.99696C35.956 5.05189 35.969 5.12838 35.9803 5.23035C36.003 5.43517 36.0161 5.71151 36.0161 6.06658H37.473ZM37.2549 4.3351C37.0939 3.95255 36.8186 3.65255 36.4443 3.46541L35.7927 4.76853C35.8477 4.79603 35.8825 4.8299 35.9122 4.90047L37.2549 4.3351ZM36.4723 3.48018C36.2494 3.35633 35.9862 3.29591 35.7417 3.26148C35.4846 3.22526 35.1841 3.20964 34.8486 3.20964V4.66657C35.145 4.66657 35.3722 4.68076 35.5385 4.70417C35.7173 4.72935 35.773 4.75836 35.7647 4.75376L36.4723 3.48018ZM34.8486 3.20964H33.7396V4.66657H34.8486V3.20964ZM34.4681 3.93811V0.486039H33.0112V3.93811H34.4681ZM60.2114 0.486039V-0.242426H59.483V0.486039H60.2114ZM77.5433 1.00474L77.3243 1.69957L77.3333 1.70228L77.5433 1.00474ZM80.3872 2.54297L79.9064 3.09018L79.9105 3.09373L80.3872 2.54297ZM82.2295 5.01129L81.5652 5.31023L81.5667 5.31336L82.2295 5.01129ZM80.4051 13.3821L79.9249 12.8344L79.9229 12.8361L80.4051 13.3821ZM69.3692 15.5463V14.8179H68.6408V15.5463H69.3692ZM69.4945 21.3236L70.1528 21.0118L70.1448 20.9948L70.1358 20.9783L69.4945 21.3236ZM69.9774 21.8245L69.6516 22.476L69.6585 22.4795L69.6655 22.4828L69.9774 21.8245ZM72.3742 21.9854H73.1026V21.257H72.3742V21.9854ZM72.3742 25.4375V26.166H73.1026V25.4375H72.3742ZM60.2114 25.4375H59.483V26.166H60.2114V25.4375ZM60.2114 21.9854V21.257H59.483V21.9854H60.2114ZM63.0375 21.3236L63.6958 21.6355L63.6989 21.6291L63.7018 21.6226L63.0375 21.3236ZM63.0554 4.65356L62.3745 4.91292L62.379 4.9241L63.0554 4.65356ZM62.5903 4.11697L62.221 4.74486L62.2424 4.75743L62.2645 4.76853L62.5903 4.11697ZM60.2114 3.93811H59.483V4.66657H60.2114V3.93811ZM69.3692 4.56413V3.83566H68.6408V4.56413H69.3692ZM69.3692 11.6471H68.6408V12.3756H69.3692V11.6471ZM74.3595 11.2536L74.6481 11.9226L74.659 11.9177L74.3595 11.2536ZM75.8262 10.0195L76.4303 10.4266L76.4343 10.4206L75.8262 10.0195ZM75.0571 5.31535L74.615 5.89432L74.6175 5.89624L75.0571 5.31535ZM60.2114 1.2145H73.3937V-0.242426H60.2114V1.2145ZM73.3937 1.2145C75.0192 1.2145 76.3222 1.38364 77.3243 1.69951L77.7623 0.309978C76.5703 -0.0657568 75.107 -0.242426 73.3937 -0.242426V1.2145ZM77.3333 1.70228C78.3529 2.00924 79.2058 2.47448 79.9064 3.09017L80.8681 1.99577C79.9947 1.22825 78.9517 0.668 77.7533 0.307207L77.3333 1.70228ZM79.9105 3.09373C80.6302 3.71675 81.1799 4.45387 81.5652 5.31022L82.8938 4.71235C82.4207 3.66083 81.7422 2.7524 80.864 1.99221L79.9105 3.09373ZM81.5667 5.31336C81.9516 6.15811 82.145 7.05646 82.145 8.01619H83.6019C83.6019 6.85341 83.366 5.74849 82.8924 4.70921L81.5667 5.31336ZM82.145 8.01619C82.145 9.93482 81.4172 11.5258 79.9249 12.8344L80.8854 13.9298C82.6841 12.3527 83.6019 10.3664 83.6019 8.01619H82.145ZM79.9229 12.8361C78.4605 14.1277 76.3928 14.8179 73.6262 14.8179V16.2748C76.631 16.2748 79.0825 15.5222 80.8874 13.9281L79.9229 12.8361ZM73.6262 14.8179H69.3692V16.2748H73.6262V14.8179ZM68.6408 15.5463V20.2147H70.0977V15.5463H68.6408ZM68.6408 20.2147C68.6408 20.5206 68.6515 20.7892 68.6767 21.0119C68.699 21.2092 68.7407 21.4604 68.8531 21.669L70.1358 20.9783C70.1563 21.0163 70.1561 21.0311 70.1482 20.998C70.1415 20.9697 70.1327 20.9216 70.1244 20.8484C70.1078 20.7015 70.0977 20.493 70.0977 20.2147H68.6408ZM68.8361 21.6355C69.0098 22.0022 69.2844 22.2924 69.6516 22.476L70.3032 21.1729C70.2411 21.1419 70.1937 21.0982 70.1528 21.0118L68.8361 21.6355ZM69.6655 22.4828C70.0483 22.6641 70.5645 22.7139 71.1042 22.7139V21.257C70.5947 21.257 70.3596 21.1995 70.2892 21.1661L69.6655 22.4828ZM71.1042 22.7139H72.3742V21.257H71.1042V22.7139ZM71.6457 21.9854V25.4375H73.1026V21.9854H71.6457ZM72.3742 24.709H60.2114V26.166H72.3742V24.709ZM60.9399 25.4375V21.9854H59.483V25.4375H60.9399ZM60.2114 22.7139H61.0521V21.257H60.2114V22.7139ZM61.0521 22.7139C61.4365 22.7139 61.7723 22.7001 62.0527 22.6693C62.3186 22.6401 62.5922 22.5902 62.8177 22.4888L62.2198 21.1602C62.2203 21.16 62.1965 21.1701 62.1356 21.1836C62.077 21.1966 61.9975 21.2097 61.8938 21.2211C61.6853 21.244 61.407 21.257 61.0521 21.257V22.7139ZM62.8177 22.4888C63.2066 22.3137 63.511 22.0257 63.6958 21.6355L62.3791 21.0118C62.3493 21.0747 62.3079 21.1205 62.2198 21.1602L62.8177 22.4888ZM63.7018 21.6226C63.8028 21.3981 63.8529 21.1269 63.8822 20.863C63.9131 20.5852 63.9269 20.2536 63.9269 19.8748H62.47C62.47 20.2234 62.457 20.497 62.4342 20.7021C62.4229 20.8042 62.4098 20.8825 62.3969 20.9403C62.3906 20.9688 62.3848 20.99 62.3801 21.0049C62.3754 21.02 62.3726 21.0259 62.3732 21.0247L63.7018 21.6226ZM63.9269 19.8748V6.15601H62.47V19.8748H63.9269ZM63.9269 6.15601C63.9269 5.76184 63.9147 5.42081 63.8879 5.13897C63.8625 4.87223 63.8194 4.60227 63.7317 4.38301L62.379 4.9241C62.3788 4.92359 62.3817 4.93081 62.3864 4.94812C62.3911 4.96512 62.3967 4.98874 62.4028 5.02003C62.415 5.08336 62.4271 5.16797 62.4375 5.2771C62.4584 5.49608 62.47 5.78703 62.47 6.15601H63.9269ZM63.7361 4.39423C63.5839 3.99471 63.3135 3.66411 62.9161 3.46541L62.2645 4.76853C62.2964 4.78447 62.336 4.81159 62.3746 4.91289L63.7361 4.39423ZM62.9597 3.48908C62.7414 3.3607 62.4862 3.29801 62.2523 3.26258C62.007 3.22541 61.7233 3.20964 61.4098 3.20964V4.66657C61.6807 4.66657 61.8859 4.68061 62.034 4.70307C62.1937 4.72725 62.2365 4.754 62.221 4.74486L62.9597 3.48908ZM61.4098 3.20964H60.2114V4.66657H61.4098V3.20964ZM60.9399 3.93811V0.486039H59.483V3.93811H60.9399ZM68.6408 4.56413V11.6471H70.0977V4.56413H68.6408ZM69.3692 12.3756H71.4977V10.9187H69.3692V12.3756ZM71.4977 12.3756C72.8195 12.3756 73.8978 12.2462 74.6481 11.9225L74.071 10.5847C73.605 10.7857 72.7754 10.9187 71.4977 10.9187V12.3756ZM74.659 11.9177C75.3895 11.5883 75.9843 11.0884 76.4303 10.4266L75.2221 9.61236C74.9288 10.0476 74.5459 10.3705 74.0601 10.5896L74.659 11.9177ZM76.4343 10.4206C76.8929 9.72535 77.1092 8.91974 77.1092 8.03408H75.6522C75.6522 8.67472 75.4989 9.1927 75.2181 9.61838L76.4343 10.4206ZM77.1092 8.03408C77.1092 6.67039 76.5683 5.54539 75.4967 4.73447L74.6175 5.89624C75.3107 6.42083 75.6522 7.10832 75.6522 8.03408H77.1092ZM75.4992 4.73639C74.6628 4.09768 73.5052 3.83566 72.1416 3.83566V5.29259C73.3537 5.29259 74.1397 5.53139 74.615 5.89431L75.4992 4.73639ZM72.1416 3.83566H69.3692V5.29259H72.1416V3.83566ZM84.358 0.486039V-0.242426H83.6295V0.486039H84.358ZM95.6443 0.486039L96.3449 0.28635L96.1941 -0.242426H95.6443V0.486039ZM99.9728 15.6716L99.2722 15.8712L99.96 18.2842L100.671 15.8781L99.9728 15.6716ZM104.462 0.486039V-0.242426H103.918L103.764 0.279511L104.462 0.486039ZM115.945 0.486039H116.674V-0.242426H115.945V0.486039ZM115.945 3.93811V4.66657H116.674V3.93811H115.945ZM113.316 4.36738L112.779 3.87513L112.778 3.8762L113.316 4.36738ZM113.048 21.27L113.712 20.971L113.709 20.9647L113.048 21.27ZM113.495 21.7708L113.844 21.1313L113.832 21.1251L113.821 21.1192L113.495 21.7708ZM115.945 21.9854H116.674V21.257H115.945V21.9854ZM115.945 25.4375V26.166H116.674V25.4375H115.945ZM103.944 25.4375H103.215V26.166H103.944V25.4375ZM103.944 21.9854V21.257H103.215V21.9854H103.944ZM106.77 21.3415L106.125 21.0022L106.121 21.009L106.118 21.0157L106.77 21.3415ZM106.948 4.76088H107.677L106.25 4.55533L106.948 4.76088ZM100.867 25.4375V26.166H101.412L101.566 25.643L100.867 25.4375ZM97.415 25.4375L96.7162 25.643L96.8699 26.166H97.415V25.4375ZM91.5304 5.42267L92.2293 5.21719L90.802 5.42267H91.5304ZM91.7093 21.3952L91.0916 21.7813L91.1 21.7948L91.109 21.8079L91.7093 21.3952ZM92.2459 21.8423L91.934 22.5007L91.9544 22.5103L91.9753 22.5187L92.2459 21.8423ZM94.5711 21.9854H95.2996V21.257H94.5711V21.9854ZM94.5711 25.4375V26.166H95.2996V25.4375H94.5711ZM84.358 25.4375H83.6295V26.166H84.358V25.4375ZM84.358 21.9854V21.257H83.6295V21.9854H84.358ZM86.6475 21.8245L86.9593 22.4828L86.9663 22.4795L86.9732 22.476L86.6475 21.8245ZM87.1662 21.2879L86.5085 20.9747L86.5051 20.9818L86.5019 20.9889L87.1662 21.2879ZM87.2198 4.68933L86.5456 4.96515L86.5489 4.97328L86.5524 4.98131L87.2198 4.68933ZM84.358 3.93811H83.6295V4.66657H84.358V3.93811ZM84.358 1.2145H95.6443V-0.242426H84.358V1.2145ZM94.9437 0.685728L99.2722 15.8712L100.673 15.4719L96.3449 0.28635L94.9437 0.685728ZM100.671 15.8781L105.161 0.692568L103.764 0.279511L99.2742 15.465L100.671 15.8781ZM104.462 1.2145H115.945V-0.242426H104.462V1.2145ZM115.217 0.486039V3.93811H116.674V0.486039H115.217ZM115.945 3.20964H114.711V4.66657H115.945V3.20964ZM114.711 3.20964C113.978 3.20964 113.251 3.35989 112.779 3.87514L113.853 4.85962C113.905 4.8025 114.109 4.66657 114.711 4.66657V3.20964ZM112.778 3.8762C112.54 4.13652 112.405 4.46581 112.326 4.79748C112.246 5.13347 112.212 5.51937 112.212 5.94138H113.669C113.669 5.58831 113.698 5.32434 113.743 5.13566C113.789 4.94267 113.841 4.87249 113.854 4.85856L112.778 3.8762ZM112.212 5.94138V20.1074H113.669V5.94138H112.212ZM112.212 20.1074C112.212 20.4283 112.221 20.705 112.242 20.93C112.26 21.1278 112.294 21.3743 112.386 21.5752L113.709 20.9647C113.726 21.0004 113.724 21.0103 113.715 20.9688C113.708 20.9332 113.7 20.8772 113.693 20.7961C113.678 20.6336 113.669 20.4065 113.669 20.1074H112.212ZM112.383 21.5689C112.544 21.9247 112.797 22.2361 113.169 22.4224L113.821 21.1192C113.812 21.1147 113.767 21.0922 113.712 20.971L112.383 21.5689ZM113.146 22.4103C113.552 22.6317 114.031 22.7139 114.532 22.7139V21.257C114.175 21.257 113.962 21.1961 113.844 21.1313L113.146 22.4103ZM114.532 22.7139H115.945V21.257H114.532V22.7139ZM115.217 21.9854V25.4375H116.674V21.9854H115.217ZM115.945 24.709H103.944V26.166H115.945V24.709ZM104.672 25.4375V21.9854H103.215V25.4375H104.672ZM103.944 22.7139H104.874V21.257H103.944V22.7139ZM104.874 22.7139C105.23 22.7139 105.545 22.7 105.812 22.6687C106.068 22.6388 106.33 22.5879 106.55 22.4888L105.952 21.1602C105.934 21.1683 105.846 21.1979 105.643 21.2217C105.451 21.2441 105.197 21.257 104.874 21.257V22.7139ZM106.55 22.4888C106.927 22.3192 107.232 22.0458 107.421 21.6673L106.118 21.0157C106.093 21.0665 106.052 21.1151 105.952 21.1602L106.55 22.4888ZM107.414 21.6808C107.625 21.28 107.677 20.704 107.677 20.1074H106.22C106.22 20.3841 106.206 20.5988 106.183 20.7586C106.171 20.8378 106.159 20.8973 106.146 20.9403C106.141 20.9614 106.135 20.977 106.131 20.9876C106.127 20.9984 106.125 21.0028 106.125 21.0022L107.414 21.6808ZM107.677 20.1074V4.76088H106.22V20.1074H107.677ZM106.25 4.55533L100.168 25.232L101.566 25.643L107.647 4.96643L106.25 4.55533ZM100.867 24.709H97.415V26.166H100.867V24.709ZM98.1139 25.232L92.2293 5.21719L90.8316 5.62815L96.7162 25.643L98.1139 25.232ZM90.802 5.42267V20.5903H92.2589V5.42267H90.802ZM90.802 20.5903C90.802 21.0049 90.8709 21.4283 91.0916 21.7813L92.327 21.0091C92.3092 20.9805 92.2589 20.8673 92.2589 20.5903H90.802ZM91.109 21.8079C91.319 22.1133 91.6013 22.3431 91.934 22.5007L92.5577 21.184C92.4374 21.127 92.362 21.0587 92.3096 20.9825L91.109 21.8079ZM91.9753 22.5187C92.3488 22.6681 92.841 22.7139 93.3727 22.7139V21.257C92.879 21.257 92.6199 21.2074 92.5164 21.166L91.9753 22.5187ZM93.3727 22.7139H94.5711V21.257H93.3727V22.7139ZM93.8427 21.9854V25.4375H95.2996V21.9854H93.8427ZM94.5711 24.709H84.358V26.166H94.5711V24.709ZM85.0865 25.4375V21.9854H83.6295V25.4375H85.0865ZM84.358 22.7139H85.3596V21.257H84.358V22.7139ZM85.3596 22.7139C85.6934 22.7139 85.9911 22.6999 86.2459 22.668C86.4902 22.6375 86.7432 22.5852 86.9593 22.4828L86.3356 21.1661C86.3365 21.1657 86.3316 21.1681 86.3193 21.1722C86.3071 21.1763 86.2896 21.1816 86.2659 21.1874C86.2177 21.1992 86.1519 21.2115 86.0652 21.2223C85.8908 21.2442 85.6578 21.257 85.3596 21.257V22.7139ZM86.9732 22.476C87.3586 22.2833 87.6528 21.9815 87.8305 21.5868L86.5019 20.9889C86.4649 21.0712 86.4133 21.1271 86.3217 21.1729L86.9732 22.476ZM87.8239 21.6011C88.0209 21.1874 88.0735 20.5834 88.0735 19.9285H86.6166C86.6166 20.5852 86.55 20.8875 86.5085 20.9747L87.8239 21.6011ZM88.0735 19.9285V5.94138H86.6166V19.9285H88.0735ZM88.0735 5.94138C88.0735 5.60653 88.0628 5.31482 88.0386 5.07295C88.0162 4.84909 87.9768 4.60215 87.8872 4.39735L86.5524 4.98131C86.5463 4.9673 86.5695 5.02442 86.5889 5.21792C86.6064 5.39339 86.6166 5.63231 86.6166 5.94138H88.0735ZM87.8941 4.41351C87.7342 4.02275 87.4719 3.69195 87.0907 3.48018L86.3831 4.75376C86.4312 4.78047 86.4908 4.83124 86.5456 4.96515L87.8941 4.41351ZM87.0907 3.48018C86.7086 3.26793 86.2138 3.20964 85.7174 3.20964V4.66657C86.151 4.66657 86.3359 4.72753 86.3831 4.75376L87.0907 3.48018ZM85.7174 3.20964H84.358V4.66657H85.7174V3.20964ZM85.0865 3.93811V0.486039H83.6295V3.93811H85.0865ZM127.804 0.486039V-0.242426H127.307L127.126 0.220075L127.804 0.486039ZM133.402 0.486039L134.081 0.221919L133.901 -0.242426H133.402V0.486039ZM140.897 19.7496L140.218 20.0138L140.219 20.0175L140.897 19.7496ZM141.97 21.6456L141.526 22.2231L141.536 22.231L141.97 21.6456ZM143.723 21.9854H144.451V21.2466L143.713 21.257L143.723 21.9854ZM143.723 25.4375V26.166H144.451V25.4375H143.723ZM131.918 25.4375H131.189V26.166H131.918V25.4375ZM131.918 21.9854L131.9 21.2572L131.189 21.275V21.9854H131.918ZM132.633 21.9675V21.2391H132.624L132.615 21.2393L132.633 21.9675ZM134.011 21.7171L134.402 22.3317L134.411 22.3255L134.421 22.319L134.011 21.7171ZM134.064 19.7496L133.371 19.9735L133.374 19.9837L134.064 19.7496ZM133.331 17.4781L134.024 17.2543L133.861 16.7496H133.331V17.4781ZM125.729 17.4781V16.7496H125.221L125.046 17.226L125.729 17.4781ZM124.799 20L124.116 19.748L124.113 19.756L124.799 20ZM124.71 21.574L124.154 22.0446L124.164 22.0566L124.174 22.0682L124.71 21.574ZM125.389 21.9139L125.556 21.2048L125.553 21.2041L125.389 21.9139ZM127.071 21.9854H127.799V21.257H127.071V21.9854ZM127.071 25.4375V26.166H127.799V25.4375H127.071ZM117.412 25.4375H116.684V26.166H117.412V25.4375ZM117.412 21.9854V21.257H116.684V21.9854H117.412ZM119.469 21.3415L118.924 20.8576L118.917 20.8662L118.909 20.8752L119.469 21.3415ZM120.095 20.1431L119.417 19.8772L119.416 19.8798L120.095 20.1431ZM127.035 13.9187L126.352 13.6645L125.986 14.6472H127.035V13.9187ZM132.025 13.9187V14.6472H133.056L132.712 13.6755L132.025 13.9187ZM129.593 7.05033L130.279 6.80713L129.61 4.9168L128.91 6.79611L129.593 7.05033ZM127.804 1.2145H133.402V-0.242426H127.804V1.2145ZM132.723 0.75016L140.218 20.0138L141.576 19.4855L134.081 0.221919L132.723 0.75016ZM140.219 20.0175C140.429 20.5472 140.634 20.9954 140.835 21.3516C141.028 21.6922 141.253 22.0132 141.526 22.223L142.414 21.0682C142.377 21.0395 142.268 20.9253 142.103 20.6339C141.947 20.3581 141.77 19.9775 141.574 19.4818L140.219 20.0175ZM141.536 22.231C142.068 22.6246 142.872 22.726 143.733 22.7138L143.713 21.257C142.881 21.2688 142.516 21.1435 142.404 21.0602L141.536 22.231ZM142.994 21.9854V25.4375H144.451V21.9854H142.994ZM143.723 24.709H131.918V26.166H143.723V24.709ZM132.646 25.4375V21.9854H131.189V25.4375H132.646ZM131.936 22.7137L132.651 22.6958L132.615 21.2393L131.9 21.2572L131.936 22.7137ZM132.633 22.696C133.305 22.696 133.95 22.6192 134.402 22.3317L133.619 21.1026C133.546 21.149 133.274 21.2391 132.633 21.2391V22.696ZM134.421 22.319C134.822 22.0453 135.132 21.6289 135.132 21.0732H133.676C133.676 21.0714 133.676 21.0651 133.678 21.0566C133.681 21.0481 133.684 21.0429 133.684 21.0422C133.685 21.0414 133.668 21.0693 133.6 21.1153L134.421 22.319ZM135.132 21.0732C135.132 20.8684 135.083 20.6292 135.025 20.4002C134.962 20.1549 134.87 19.8586 134.754 19.5156L133.374 19.9837C133.485 20.3085 133.563 20.5666 133.613 20.7625C133.639 20.8603 133.655 20.9365 133.665 20.9938C133.675 21.0545 133.676 21.0772 133.676 21.0732H135.132ZM134.757 19.5258L134.024 17.2543L132.638 17.7019L133.371 19.9734L134.757 19.5258ZM133.331 16.7496H125.729V18.2065H133.331V16.7496ZM125.046 17.226L124.116 19.748L125.483 20.2521L126.413 17.7301L125.046 17.226ZM124.113 19.756C124.014 20.0333 123.936 20.2747 123.881 20.4757C123.832 20.6582 123.784 20.868 123.784 21.0553H125.241C125.241 21.0757 125.242 21.0262 125.287 20.857C125.328 20.7061 125.393 20.5034 125.485 20.2441L124.113 19.756ZM123.784 21.0553C123.784 21.4301 123.919 21.7672 124.154 22.0446L125.266 21.1035C125.248 21.0829 125.244 21.0717 125.243 21.0698C125.243 21.0685 125.241 21.0653 125.241 21.0553H123.784ZM124.174 22.0682C124.455 22.3727 124.841 22.5349 125.225 22.6237L125.553 21.2041C125.318 21.1498 125.25 21.0855 125.245 21.0799L124.174 22.0682ZM125.222 22.623C125.4 22.6648 125.657 22.6837 125.931 22.6954C126.226 22.7079 126.607 22.7139 127.071 22.7139V21.257C126.616 21.257 126.258 21.251 125.993 21.2397C125.86 21.2341 125.755 21.2273 125.676 21.2199C125.637 21.2162 125.607 21.2127 125.585 21.2095C125.562 21.2062 125.554 21.2042 125.556 21.2048L125.222 22.623ZM126.342 21.9854V25.4375H127.799V21.9854H126.342ZM127.071 24.709H117.412V26.166H127.071V24.709ZM118.14 25.4375V21.9854H116.684V25.4375H118.14ZM117.412 22.7139C118.048 22.7139 118.612 22.6622 119.027 22.5065L118.516 21.1424C118.358 21.2013 118.016 21.257 117.412 21.257V22.7139ZM119.027 22.5065C119.42 22.3592 119.761 22.1285 120.029 21.8079L118.909 20.8752C118.819 20.9838 118.695 21.0751 118.516 21.1424L119.027 22.5065ZM120.013 21.8255C120.298 21.5058 120.544 20.9989 120.774 20.4065L119.416 19.8798C119.192 20.456 119.022 20.748 118.924 20.8576L120.013 21.8255ZM120.773 20.4091L128.482 0.752004L127.126 0.220075L119.417 19.8772L120.773 20.4091ZM127.035 14.6472H132.025V13.1902H127.035V14.6472ZM132.712 13.6755L130.279 6.80713L128.906 7.29353L131.338 14.1619L132.712 13.6755ZM128.91 6.79611L126.352 13.6645L127.718 14.1729L130.275 7.30455L128.91 6.79611ZM147.801 0.486039V-0.242426H147.246L147.099 0.292589L147.801 0.486039ZM150.323 0.486039L150.961 0.134978L150.754 -0.242426H150.323V0.486039ZM150.913 1.55922L150.275 1.91028L150.622 2.54123L151.257 2.20153L150.913 1.55922ZM163.863 1.75597L163.471 2.37022L163.474 2.37208L163.863 1.75597ZM161.842 12.2553L161.603 11.5671L159.078 12.4438L161.698 12.9695L161.842 12.2553ZM149.089 23.8993L148.658 24.4871L148.663 24.4902L149.089 23.8993ZM144.42 18.4976L143.986 17.9126L143.468 18.2969L143.787 18.8576L144.42 18.4976ZM147.193 16.4407L147.794 16.0296L147.367 15.4044L146.759 15.8556L147.193 16.4407ZM159.892 15.2065L159.414 15.7564L159.419 15.7609L159.892 15.2065ZM152.505 14.2585H151.777V14.987H152.505V14.2585ZM152.505 10.5918V9.86336H151.777V10.5918H152.505ZM159.391 9.75117L159.836 10.3282L159.842 10.3236L159.391 9.75117ZM159.177 4.85031L158.778 5.46039L158.788 5.46662L159.177 4.85031ZM151.646 5.76251L151.131 5.24741L151.646 5.76251ZM148.659 10.413L148.456 11.1125L149.075 11.2921L149.329 10.7004L148.659 10.413ZM145.333 9.4471L144.63 9.25365L144.439 9.94635L145.129 10.1467L145.333 9.4471ZM147.801 1.2145H150.323V-0.242426H147.801V1.2145ZM149.685 0.8371L150.275 1.91028L151.551 1.20816L150.961 0.134978L149.685 0.8371ZM151.257 2.20153C153.014 1.26113 154.982 0.785232 157.173 0.785232V-0.671699C154.762 -0.671699 152.556 -0.145959 150.569 0.91691L151.257 2.20153ZM157.173 0.785232C159.755 0.785232 161.84 1.32992 163.471 2.37021L164.254 1.14173C162.333 -0.0835824 159.957 -0.671699 157.173 -0.671699V0.785232ZM163.474 2.37208C165.05 3.36637 165.799 4.70754 165.799 6.46008H167.256C167.256 4.18223 166.229 2.38732 164.252 1.13986L163.474 2.37208ZM165.799 6.46008C165.799 7.70346 165.454 8.71376 164.79 9.53459C164.118 10.3651 163.078 11.0548 161.603 11.5671L162.081 12.9434C163.73 12.3706 165.032 11.5519 165.923 10.4507C166.821 9.33979 167.256 7.99505 167.256 6.46008H165.799ZM161.698 12.9695C163.478 13.3266 164.723 13.964 165.522 14.8185C166.309 15.6606 166.73 16.7853 166.73 18.2651H168.186C168.186 16.4895 167.671 14.985 166.586 13.8237C165.513 12.675 163.949 11.9351 161.985 11.541L161.698 12.9695ZM166.73 18.2651C166.73 20.3169 165.841 21.9469 163.974 23.2059L164.789 24.4138C167.024 22.9063 168.186 20.8398 168.186 18.2651H166.73ZM163.974 23.2059C162.065 24.4932 159.71 25.1562 156.869 25.1562V26.6131C159.943 26.6131 162.596 25.8929 164.789 24.4138L163.974 23.2059ZM156.869 25.1562C153.602 25.1562 151.18 24.5089 149.515 23.3083L148.663 24.4902C150.67 25.9369 153.436 26.6131 156.869 26.6131V25.1562ZM149.519 23.3115C147.789 22.0453 146.298 20.3274 145.054 18.1376L143.787 18.8576C145.118 21.199 146.739 23.0822 148.658 24.4871L149.519 23.3115ZM144.854 19.0826L147.627 17.0257L146.759 15.8556L143.986 17.9126L144.854 19.0826ZM146.591 16.8517C149.113 20.5405 152.274 22.4814 156.064 22.4814V21.0244C152.867 21.0244 150.114 19.4238 147.794 16.0296L146.591 16.8517ZM156.064 22.4814C157.876 22.4814 159.359 22.0852 160.332 21.1273L159.309 20.0891C158.732 20.6575 157.711 21.0244 156.064 21.0244V22.4814ZM160.332 21.1273C161.245 20.2276 161.712 19.1166 161.712 17.8358H160.255C160.255 18.7252 159.946 19.4625 159.309 20.0891L160.332 21.1273ZM161.712 17.8358C161.712 16.5332 161.285 15.4366 160.365 14.6521L159.419 15.7609C159.954 16.2166 160.255 16.8728 160.255 17.8358H161.712ZM160.37 14.6566C159.883 14.2337 159.229 13.9583 158.471 13.7854C157.709 13.6112 156.795 13.5301 155.742 13.5301V14.987C156.729 14.987 157.526 15.0639 158.147 15.2057C158.773 15.3487 159.174 15.5474 159.414 15.7564L160.37 14.6566ZM155.742 13.5301H152.505V14.987H155.742V13.5301ZM153.233 14.2585V10.5918H151.777V14.2585H153.233ZM152.505 11.3203H155.242V9.86336H152.505V11.3203ZM155.242 11.3203C156.29 11.3203 157.198 11.2486 157.953 11.0956C158.701 10.9442 159.349 10.7031 159.836 10.3282L158.947 9.17412C158.706 9.35964 158.299 9.53895 157.664 9.6677C157.036 9.79495 156.232 9.86336 155.242 9.86336V11.3203ZM159.842 10.3236C160.758 9.60249 161.211 8.60327 161.211 7.40806H159.754C159.754 8.19227 159.479 8.75512 158.941 9.17869L159.842 10.3236ZM161.211 7.40806C161.211 6.03801 160.677 4.93442 159.565 4.234L158.788 5.46662C159.418 5.86323 159.754 6.4648 159.754 7.40806H161.211ZM159.575 4.24031C158.577 3.58913 157.395 3.28119 156.064 3.28119V4.73812C157.166 4.73812 158.059 4.99061 158.778 5.46031L159.575 4.24031ZM156.064 3.28119C154.111 3.28119 152.447 3.93128 151.131 5.24741L152.162 6.27762C153.183 5.25659 154.465 4.73812 156.064 4.73812V3.28119ZM151.131 5.24741C149.893 6.48555 148.851 8.12062 147.99 10.1255L149.329 10.7004C150.137 8.818 151.086 7.35278 152.162 6.27762L151.131 5.24741ZM148.863 9.71339L145.536 8.74752L145.129 10.1467L148.456 11.1125L148.863 9.71339ZM146.035 9.64055L148.503 0.67949L147.099 0.292589L144.63 9.25365L146.035 9.64055ZM193.357 3.66981L192.846 4.1887L192.847 4.18994L193.357 3.66981ZM190.71 24.2749L191.056 24.916L191.057 24.9153L190.71 24.2749ZM174.523 22.8261L174.999 22.2746L174.999 22.2741L174.523 22.8261ZM173.987 3.6877L173.479 3.16515L173.478 3.16637L173.987 3.6877ZM179.299 6.15601L178.727 5.70447L178.726 5.70561L179.299 6.15601ZM179.156 19.7854L178.586 20.2395L178.588 20.2422L179.156 19.7854ZM188.135 19.7854L188.704 20.2393L188.707 20.236L188.135 19.7854ZM189.261 8.05197L188.589 8.33173L188.591 8.33677L189.261 8.05197ZM183.752 0.785232C187.552 0.785232 190.559 1.93506 192.846 4.18869L193.869 3.15092C191.267 0.587172 187.871 -0.671699 183.752 -0.671699V0.785232ZM192.847 4.18994C195.15 6.4474 196.314 9.34722 196.314 12.9528H197.77C197.77 8.99847 196.478 5.70961 193.867 3.14968L192.847 4.18994ZM196.314 12.9528C196.314 15.3819 195.779 17.5085 194.728 19.3533L195.994 20.0745C197.184 17.9842 197.77 15.6034 197.77 12.9528H196.314ZM194.728 19.3533C193.674 21.2034 192.222 22.6265 190.363 23.6345L191.057 24.9153C193.157 23.7769 194.806 22.1594 195.994 20.0745L194.728 19.3533ZM190.364 23.6337C188.526 24.6252 186.273 25.1383 183.574 25.1383V26.5952C186.455 26.5952 188.959 26.0471 191.056 24.916L190.364 23.6337ZM183.574 25.1383C180.029 25.1383 177.192 24.1669 174.999 22.2746L174.047 23.3776C176.552 25.5395 179.749 26.5952 183.574 26.5952V25.1383ZM174.999 22.2741C172.337 19.9818 170.995 16.9243 170.995 13.0244H169.538C169.538 17.3044 171.033 20.7814 174.048 23.378L174.999 22.2741ZM170.995 13.0244C170.995 9.39568 172.17 6.47847 174.495 4.20903L173.478 3.16637C170.843 5.73816 169.538 9.0454 169.538 13.0244H170.995ZM174.494 4.21025C176.829 1.94241 179.892 0.785232 183.752 0.785232V-0.671699C179.576 -0.671699 176.128 0.591746 173.479 3.16515L174.494 4.21025ZM183.824 3.29907C181.718 3.29907 179.994 4.101 178.727 5.70447L179.87 6.60756C180.846 5.37306 182.138 4.756 183.824 4.756V3.29907ZM178.726 5.70561C177.196 7.65117 176.46 10.129 176.46 13.078H177.917C177.917 10.3749 178.588 8.23813 179.871 6.60641L178.726 5.70561ZM176.46 13.078C176.46 16.0126 177.141 18.4268 178.586 20.2395L179.725 19.3314C178.547 17.8529 177.917 15.7956 177.917 13.078H176.46ZM178.588 20.2422C179.864 21.8269 181.572 22.6245 183.645 22.6245V21.1675C181.998 21.1675 180.713 20.558 179.723 19.3286L178.588 20.2422ZM183.645 22.6245C185.729 22.6245 187.439 21.8279 188.704 20.2393L187.565 19.3315C186.589 20.5571 185.306 21.1675 183.645 21.1675V22.6245ZM188.707 20.236C190.16 18.3908 190.848 15.9681 190.848 13.0423H189.392C189.392 15.7446 188.757 17.8174 187.562 19.3348L188.707 20.236ZM190.848 13.0423C190.848 10.9974 190.553 9.23039 189.932 7.76716L188.591 8.33677C189.114 9.56842 189.392 11.1282 189.392 13.0423H190.848ZM189.934 7.77221C189.333 6.32705 188.492 5.19454 187.386 4.42997L186.558 5.62838C187.384 6.19932 188.069 7.08201 188.589 8.33172L189.934 7.77221ZM187.386 4.42997C186.303 3.68131 185.11 3.29907 183.824 3.29907V4.756C184.803 4.756 185.709 5.04152 186.558 5.62838L187.386 4.42997ZM210.51 7.05033L211.198 6.80839L210.528 4.90562L209.827 6.79745L210.51 7.05033ZM205.717 20L206.4 20.2541L206.4 20.2529L205.717 20ZM205.932 21.7887L205.645 22.4583L205.655 22.4626L205.665 22.4667L205.932 21.7887ZM207.953 21.9854H208.681V21.257H207.953V21.9854ZM207.953 25.4375V26.166H208.681V25.4375H207.953ZM198.33 25.4375H197.601V26.166H198.33V25.4375ZM198.33 21.9854V21.257H197.601V21.9854H198.33ZM200.047 21.6456L199.638 21.0427L199.628 21.0499L200.047 21.6456ZM201.013 20.1431L201.689 20.4137L201.691 20.4091L201.013 20.1431ZM208.722 0.486039V-0.242426H208.225L208.044 0.220075L208.722 0.486039ZM214.284 0.486039L214.963 0.220825L214.782 -0.242426H214.284V0.486039ZM221.815 19.7496L221.136 20.0149L221.136 20.0154L221.815 19.7496ZM222.78 21.5383L222.255 22.0432L222.265 22.0535L222.276 22.0634L222.78 21.5383ZM224.641 21.9854H225.369V21.257H224.641V21.9854ZM224.641 25.4375V26.166H225.369V25.4375H224.641ZM212.836 25.4375H212.107V26.166H212.836V25.4375ZM212.836 21.9854L212.817 21.2572L212.107 21.275V21.9854H212.836ZM213.551 21.9675L213.536 21.2392L213.533 21.2393L213.551 21.9675ZM214.982 19.7496L215.669 19.5079L215.669 19.5077L214.982 19.7496ZM209.827 6.79745L205.034 19.7472L206.4 20.2529L211.194 7.30321L209.827 6.79745ZM205.034 19.746C204.934 20.014 204.855 20.2527 204.799 20.4578C204.747 20.6503 204.702 20.8611 204.702 21.0553H206.159C206.159 21.0588 206.162 20.9983 206.205 20.8391C206.245 20.6924 206.309 20.4988 206.4 20.2541L205.034 19.746ZM204.702 21.0553C204.702 21.3495 204.775 21.6462 204.954 21.9089C205.132 22.169 205.379 22.3446 205.645 22.4583L206.218 21.1191C206.184 21.1042 206.166 21.0919 206.158 21.0862C206.152 21.0812 206.153 21.0812 206.157 21.0872C206.162 21.0934 206.163 21.0982 206.163 21.0974C206.163 21.0958 206.159 21.0832 206.159 21.0553H204.702ZM205.665 22.4667C205.928 22.5699 206.261 22.6267 206.617 22.6613C206.985 22.6972 207.433 22.7139 207.953 22.7139V21.257C207.459 21.257 207.063 21.2409 206.758 21.2112C206.44 21.1803 206.269 21.1386 206.198 21.1107L205.665 22.4667ZM207.224 21.9854V25.4375H208.681V21.9854H207.224ZM207.953 24.709H198.33V26.166H207.953V24.709ZM199.058 25.4375V21.9854H197.601V25.4375H199.058ZM198.33 22.7139C199.17 22.7139 199.945 22.6079 200.466 22.2413L199.628 21.0499C199.505 21.1364 199.135 21.257 198.33 21.257V22.7139ZM200.456 22.2484C200.984 21.8903 201.372 21.2063 201.689 20.4137L200.336 19.8726C200.033 20.6301 199.778 20.9478 199.638 21.0428L200.456 22.2484ZM201.691 20.4091L209.4 0.752004L208.044 0.220075L200.335 19.8772L201.691 20.4091ZM208.722 1.2145H214.284V-0.242426H208.722V1.2145ZM213.606 0.751254L221.136 20.0149L222.493 19.4844L214.963 0.220825L213.606 0.751254ZM221.136 20.0154C221.485 20.9053 221.85 21.6211 222.255 22.0432L223.306 21.0334C223.115 20.8354 222.836 20.3588 222.493 19.4838L221.136 20.0154ZM222.276 22.0634C222.558 22.3353 222.928 22.4908 223.308 22.5819C223.693 22.6744 224.142 22.7139 224.641 22.7139V21.257C224.209 21.257 223.884 21.2219 223.648 21.1654C223.408 21.1075 223.313 21.0393 223.285 21.0132L222.276 22.0634ZM223.912 21.9854V25.4375H225.369V21.9854H223.912ZM224.641 24.709H212.836V26.166H224.641V24.709ZM213.564 25.4375V21.9854H212.107V25.4375H213.564ZM212.854 22.7137L213.569 22.6958L213.533 21.2393L212.817 21.2572L212.854 22.7137ZM213.566 22.6959C214.192 22.6832 214.766 22.5993 215.208 22.3763C215.438 22.2601 215.655 22.0944 215.814 21.8599C215.977 21.6198 216.05 21.3486 216.05 21.0732H214.593C214.593 21.084 214.593 21.0648 214.608 21.0422C214.62 21.0254 214.616 21.043 214.551 21.0758C214.402 21.151 214.09 21.228 213.536 21.2392L213.566 22.6959ZM216.05 21.0732C216.05 20.8603 216.003 20.6188 215.942 20.3823C215.879 20.1339 215.786 19.841 215.669 19.5079L214.295 19.9914C214.404 20.3022 214.482 20.5519 214.531 20.7446C214.584 20.9493 214.593 21.0477 214.593 21.0732H216.05ZM215.669 19.5077L211.198 6.80839L209.823 7.29227L214.295 19.9916L215.669 19.5077Z" fill="#737373"/>
</svg>
