<svg width="116" height="116" viewBox="0 0 116 116" fill="none" xmlns="http://www.w3.org/2000/svg">
<path d="M114.893 57.9546C114.893 89.6555 89.1943 115.354 57.4934 115.354C25.7924 115.354 0.09375 89.6555 0.09375 57.9546C0.09375 26.2536 25.7924 0.554932 57.4934 0.554932C89.1943 0.554932 114.893 26.2536 114.893 57.9546Z" fill="#0596D6"/>
<path d="M98.077 57.8854L110.498 59.0382L110.368 60.4362L104.704 59.9105C105.069 60.3903 105.485 60.9169 105.95 61.4904C106.413 62.0757 106.884 62.6557 107.361 63.2302C107.837 63.8167 108.292 64.3592 108.728 64.8576C109.164 65.356 109.535 65.7701 109.842 66.0998L109.688 67.7667C109.337 67.3847 108.934 66.9254 108.478 66.389C108.032 65.8656 107.56 65.3095 107.06 64.7208C106.572 64.1332 106.096 63.5527 105.631 62.9793C105.178 62.4069 104.768 61.8809 104.403 61.4011C104.02 61.8958 103.538 62.4174 102.956 62.9661C102.374 63.5266 101.745 64.0708 101.069 64.5987C100.394 65.1265 99.7231 65.6005 99.0574 66.0208C98.3906 66.453 97.781 66.7881 97.2287 67.0261L97.3767 65.4309C98.0096 65.104 98.6416 64.7228 99.2725 64.2873C99.9035 63.8517 100.513 63.3841 101.102 62.8843C101.691 62.3846 102.232 61.8745 102.726 61.3539C103.22 60.8453 103.64 60.342 103.987 59.844L97.9473 59.2834L98.077 57.8854Z" fill="white"/>
<path d="M94.0096 64.8188C94.0892 64.5296 94.1987 64.2672 94.3381 64.0318C94.4776 63.7963 94.5816 63.6445 94.6501 63.5762L95.6372 64.1277C95.5834 64.1876 95.4973 64.3195 95.379 64.5234C95.2491 64.7242 95.154 64.9345 95.0935 65.1543C94.9757 65.5824 94.9391 65.9644 94.9836 66.3002C95.0282 66.636 95.169 66.961 95.4062 67.2752C95.6434 67.5893 95.9894 67.9148 96.4444 68.2515C97.4953 68.0054 98.5919 67.7968 99.7342 67.6256C100.873 67.466 102.02 67.3459 103.175 67.2653C104.33 67.1846 105.451 67.1571 106.539 67.1826L106.162 68.5537C105.583 68.5314 104.956 68.5268 104.281 68.5401C103.602 68.5649 102.895 68.6008 102.16 68.6476C101.422 68.706 100.666 68.7843 99.8925 68.8826C99.1303 68.9841 98.3691 69.1045 97.6089 69.2439C98.4339 69.8193 99.2179 70.3399 99.961 70.8056C100.716 71.2746 101.481 71.7277 102.257 72.1652C103.044 72.6058 103.888 73.068 104.787 73.552L104.429 74.8537C103.389 74.2936 102.367 73.7078 101.366 73.0962C100.361 72.4962 99.4029 71.8842 98.4918 71.2602C97.589 70.651 96.7447 70.0329 95.9588 69.4061C95.3442 68.9258 94.8616 68.4633 94.511 68.0184C94.1605 67.5735 93.9431 67.0968 93.859 66.5882C93.7716 66.0913 93.8219 65.5015 94.0096 64.8188Z" fill="white"/>
<path d="M95.707 71.7096L104.124 75.7219L100.987 82.3024L92.57 78.2902L93.1431 77.0878L100.536 80.6121L102.519 76.4525L95.126 72.9282L95.707 71.7096Z" fill="white"/>
<path d="M92.3806 78.7252L99.8805 84.265L99.0891 85.3364C98.0949 84.602 97.1139 83.87 96.1462 83.1402C95.181 82.4272 94.2398 81.7321 93.3229 81.0548C93.5181 81.4974 93.7209 81.9903 93.9313 82.5336C94.1513 83.084 94.3667 83.6608 94.5776 84.2641C94.798 84.8745 95.0053 85.4826 95.1993 86.0884C95.403 86.7013 95.5813 87.288 95.7342 87.8485C95.8799 88.4187 95.9965 88.9375 96.084 89.4048L95.3567 90.3894L87.8569 84.8496L88.6376 83.7927C89.3325 84.306 90.0227 84.8158 90.708 85.322C91.4029 85.8353 92.0834 86.338 92.7495 86.8299C93.4251 87.329 94.0815 87.8138 94.7185 88.2844C94.5753 87.731 94.3833 87.082 94.1427 86.3373C93.8949 85.6023 93.624 84.8279 93.3301 84.014C93.0387 83.2169 92.7462 82.4414 92.4527 81.6876C92.1617 80.9505 91.8917 80.296 91.6427 79.7242L92.3806 78.7252Z" fill="white"/>
<path d="M86.0919 86.4943L91.7984 92.369L93.9675 90.262L94.7576 91.0755L89.4251 96.2552L88.635 95.4417L90.83 93.3097L85.1236 87.4349L86.0919 86.4943Z" fill="white"/>
<path d="M80.6696 90.8095C81.0325 90.5536 81.4042 90.3207 81.7849 90.111C82.1587 89.8914 82.51 89.7024 82.8387 89.5439C83.1675 89.3854 83.4507 89.2665 83.6883 89.187L88.9379 96.63L87.8347 97.4081L85.7079 94.3926C85.5757 94.5592 85.3603 94.7846 85.0614 95.0688C84.7597 95.3697 84.4323 95.6447 84.0793 95.8937C83.6674 96.1842 83.2455 96.4083 82.8135 96.5662C82.3786 96.7407 81.9547 96.8268 81.5418 96.8243C81.1191 96.8288 80.7152 96.7245 80.3301 96.5116C79.942 96.3154 79.5889 95.9917 79.2708 95.5406C78.9526 95.0895 78.7579 94.6468 78.6865 94.2126C78.6221 93.7881 78.6629 93.3775 78.809 92.9808C78.955 92.5841 79.1931 92.2033 79.5231 91.8384C79.8363 91.4706 80.2185 91.1276 80.6696 90.8095ZM81.3483 91.7405C80.7207 92.1831 80.307 92.6585 80.1073 93.1664C79.9076 93.6744 80.0014 94.203 80.3887 94.7521C80.7691 95.2915 81.237 95.5489 81.7923 95.5243C82.3477 95.4997 82.9097 95.2868 83.4785 94.8857C83.7825 94.6713 84.081 94.4387 84.3741 94.188C84.6573 93.9441 84.8841 93.7034 85.0543 93.4659L83.1142 90.7153C82.966 90.7758 82.726 90.8936 82.3944 91.0688C82.0598 91.2607 81.7111 91.4846 81.3483 91.7405Z" fill="white"/>
<path d="M66.7444 101.534C67.191 101.442 67.5994 101.462 67.9697 101.594C68.3283 101.728 68.6297 101.941 68.874 102.234C69.1207 102.538 69.2829 102.878 69.3606 103.254C69.4407 103.642 69.4266 104.019 69.3184 104.384C69.2101 104.75 69.0179 105.065 68.7419 105.331C68.4541 105.598 68.0869 105.778 67.6404 105.871C67.1938 105.963 66.7912 105.942 66.4327 105.808C66.0623 105.676 65.755 105.464 65.5108 105.171C65.2665 104.878 65.1043 104.538 65.0242 104.15C64.9465 103.774 64.9606 103.398 65.0664 103.021C65.1747 102.655 65.3727 102.338 65.6605 102.071C65.9365 101.805 66.2978 101.627 66.7444 101.534Z" fill="white"/>
<path d="M52.4831 98.2239L49.8194 110.41L48.4478 110.11L49.6624 104.554C49.1415 104.857 48.5681 105.205 47.9421 105.596C47.3043 105.985 46.6712 106.381 46.0426 106.784C45.4023 107.185 44.8082 107.571 44.2602 107.942C43.7122 108.314 43.2558 108.632 42.891 108.896L41.2556 108.538C41.6776 108.237 42.1827 107.893 42.771 107.506C43.345 107.128 43.9547 106.727 44.6001 106.303C45.2429 105.891 45.8774 105.489 46.5034 105.097C47.1268 104.718 47.699 104.376 48.2199 104.072C47.7758 103.631 47.317 103.089 46.8436 102.445C46.3585 101.798 45.8953 101.108 45.4542 100.372C45.013 99.6373 44.6245 98.9137 44.2888 98.2015C43.9414 97.4869 43.6834 96.8409 43.5148 96.2636L45.0799 96.6057C45.3269 97.2738 45.628 97.9476 45.983 98.6271C46.3381 99.3066 46.7277 99.9691 47.1516 100.615C47.5756 101.26 48.0156 101.86 48.4718 102.414C48.9163 102.966 49.3644 103.444 49.8161 103.85L51.1115 97.924L52.4831 98.2239Z" fill="white"/>
<path d="M46.1954 93.3558C46.4726 93.4706 46.7193 93.6118 46.9357 93.7793C47.152 93.9469 47.2898 94.0689 47.3491 94.1454L46.6795 95.0565C46.6267 94.9957 46.5065 94.8939 46.3188 94.7513C46.1357 94.5975 45.9388 94.477 45.7282 94.3897C45.318 94.2198 44.9435 94.1362 44.6047 94.1387C44.266 94.1413 43.926 94.2408 43.5849 94.4372C43.2438 94.6336 42.878 94.9367 42.4875 95.3464C42.6014 96.4197 42.6725 97.5338 42.7008 98.6885C42.718 99.8386 42.6951 100.992 42.632 102.147C42.5689 103.303 42.4573 104.419 42.2971 105.496L40.9833 104.952C41.0772 104.38 41.1594 103.759 41.23 103.086C41.2895 102.41 41.3415 101.704 41.3861 100.969C41.4196 100.229 41.4356 99.4698 41.4339 98.6898C41.4277 97.9209 41.4025 97.1506 41.3584 96.379C40.6852 97.1263 40.0715 97.8397 39.5172 98.5194C38.9584 99.2101 38.4139 99.9132 37.8837 100.629C37.3489 101.355 36.7857 102.135 36.1939 102.968L34.9466 102.452C35.6314 101.488 36.3392 100.548 37.0702 99.6295C37.7901 98.7067 38.5161 97.8319 39.2482 97.0052C39.9646 96.1849 40.6825 95.4237 41.402 94.7215C41.9547 94.1711 42.4735 93.7495 42.9584 93.4568C43.4433 93.1641 43.9433 93.0075 44.4583 92.987C44.9623 92.962 45.5413 93.0849 46.1954 93.3558Z" fill="white"/>
<path d="M39.1588 94.1834L34.1535 102.05L28.003 98.1366L33.0083 90.27L34.1321 90.985L29.7355 97.8949L33.6233 100.369L38.0198 93.4586L39.1588 94.1834Z" fill="white"/>
<path d="M32.6018 90.0133L26.2031 96.7952L25.2343 95.8811C26.0825 94.9821 26.9268 94.0959 27.7673 93.2226C28.5908 92.3498 29.3937 91.4987 30.176 90.6696C29.7133 90.8103 29.1996 90.9526 28.635 91.0964C28.0622 91.2488 27.4637 91.3936 26.8395 91.5306C26.2071 91.6763 25.5785 91.8092 24.9538 91.9292C24.3209 92.0579 23.717 92.1646 23.1423 92.2493C22.5588 92.3256 22.0298 92.3792 21.5553 92.41L20.665 91.57L27.0636 84.7881L28.0194 85.6899C27.4265 86.3183 26.8377 86.9424 26.253 87.5621C25.66 88.1905 25.0795 88.8059 24.5113 89.4081C23.9348 90.0191 23.3748 90.6126 22.8313 91.1887C23.3978 91.1128 24.0652 91 24.8333 90.8504C25.5927 90.6925 26.394 90.5164 27.2373 90.3221C28.0636 90.1283 28.8685 89.9308 29.6521 89.7298C30.4188 89.5292 31.1009 89.3396 31.6984 89.161L32.6018 90.0133Z" fill="white"/>
<path d="M25.6672 82.8512L19.1512 87.8129L20.9832 90.2188L20.081 90.9058L15.5774 84.9913L16.4796 84.3043L18.3334 86.7388L24.8494 81.7772L25.6672 82.8512Z" fill="white"/>
<path d="M22.0586 76.9653C22.2687 77.3564 22.4549 77.7536 22.617 78.1569C22.7898 78.5545 22.9349 78.926 23.0524 79.2715C23.17 79.6171 23.2538 79.9126 23.304 80.1581L15.2806 84.4687L14.6417 83.2795L17.8923 81.5331C17.7429 81.3818 17.5452 81.1406 17.2992 80.8096C17.037 80.4737 16.8037 80.1155 16.5992 79.7349C16.3607 79.2909 16.1892 78.845 16.0848 78.3971C15.9641 77.9443 15.93 77.5131 15.9824 77.1035C16.0291 76.6834 16.1814 76.295 16.4394 75.9384C16.6811 75.577 17.0451 75.2657 17.5314 75.0044C18.0176 74.7431 18.4806 74.6034 18.9203 74.5851C19.3495 74.5725 19.7521 74.6627 20.1282 74.8556C20.5043 75.0486 20.8536 75.331 21.1759 75.7027C21.5031 76.0581 21.7973 76.479 22.0586 76.9653ZM21.0523 77.5264C20.6888 76.8498 20.267 76.3817 19.7869 76.122C19.3068 75.8623 18.7708 75.8914 18.1788 76.2095C17.5974 76.5219 17.2853 76.9552 17.2426 77.5094C17.1998 78.0637 17.3431 78.6473 17.6725 79.2605C17.8486 79.5882 18.0433 79.9126 18.2568 80.2339C18.4645 80.5445 18.676 80.7987 18.8912 80.9964L21.8564 79.4033C21.8142 79.2489 21.7263 78.9964 21.5925 78.646C21.4425 78.2907 21.2624 77.9175 21.0523 77.5264Z" fill="white"/>
<path d="M13.1221 61.8727C13.159 62.3272 13.0894 62.7302 12.9132 63.0816C12.7361 63.421 12.4874 63.694 12.167 63.9006C11.8347 64.1082 11.4772 64.2275 11.0945 64.2586C10.6998 64.2906 10.3277 64.2305 9.97824 64.0783C9.62878 63.9261 9.33928 63.6967 9.10973 63.3903C8.87921 63.0719 8.74551 62.6855 8.70861 62.231C8.67172 61.7765 8.74183 61.3795 8.91895 61.04C9.09509 60.6886 9.34333 60.4096 9.66367 60.203C9.984 59.9965 10.3415 59.8771 10.7362 59.8451C11.119 59.814 11.491 59.8741 11.8525 60.0254C12.2019 60.1776 12.4919 60.4129 12.7224 60.7313C12.952 61.0377 13.0852 61.4182 13.1221 61.8727Z" fill="white"/>
<path d="M18.0838 48.1679L6.32459 44.0058L6.79305 42.6823L12.1551 44.5801C11.9186 44.0254 11.6453 43.4131 11.335 42.7432C11.0287 42.062 10.7148 41.3844 10.3933 40.7105C10.0757 40.0253 9.76674 39.3877 9.46639 38.7976C9.16605 38.2076 8.90755 37.7151 8.6909 37.3202L9.24945 35.7422C9.49533 36.1983 9.77375 36.7424 10.0847 37.3744C10.3884 37.991 10.7103 38.646 11.0505 39.3392C11.3793 40.0284 11.6989 40.708 12.0092 41.3779C12.3081 42.0438 12.5758 42.6541 12.8123 43.2088C13.3052 42.8232 13.9006 42.4356 14.5986 42.0462C15.3005 41.6454 16.0437 41.272 16.8281 40.9259C17.6126 40.5798 18.379 40.2846 19.1274 40.0403C19.8798 39.7847 20.5529 39.6093 21.1467 39.5139L20.6122 41.0241C19.9185 41.1859 19.2124 41.4006 18.4939 41.6683C17.7755 41.9359 17.0696 42.2398 16.3764 42.58C15.6831 42.9202 15.0331 43.282 14.4264 43.6656C13.8237 44.0378 13.2928 44.4227 12.8338 44.8204L18.5522 46.8443L18.0838 48.1679Z" fill="white"/>
<path d="M23.6947 42.5026C23.5469 42.7637 23.3766 42.9914 23.1839 43.1856C22.9912 43.3799 22.8532 43.5017 22.7701 43.5512L21.9476 42.7753C22.0144 42.7304 22.1301 42.6235 22.2946 42.4546C22.4696 42.2917 22.6133 42.111 22.7256 41.9126C22.9444 41.5262 23.0732 41.1648 23.112 40.8282C23.1508 40.4917 23.0936 40.1421 22.9404 39.7796C22.7871 39.417 22.531 39.0169 22.172 38.5792C21.0929 38.5612 19.9785 38.4957 18.829 38.3827C17.6854 38.2592 16.5438 38.0956 15.4044 37.8918C14.2649 37.6879 13.1707 37.4407 12.1217 37.1502L12.8223 35.9128C13.3781 36.0758 13.9853 36.2333 14.6438 36.3855C15.3082 36.5272 16.0023 36.6651 16.7262 36.7992C17.456 36.9228 18.2081 37.0314 18.9825 37.1251C19.7464 37.2129 20.514 37.282 21.2852 37.3325C20.6258 36.5731 19.9926 35.8768 19.3858 35.2436C18.7685 34.6046 18.1372 33.9782 17.4917 33.3646C16.8359 32.745 16.1307 32.0907 15.3763 31.4016L16.0414 30.2268C16.9138 31.0241 17.761 31.8416 18.583 32.6793C19.4109 33.5065 20.1904 34.334 20.9215 35.1616C21.6481 35.9729 22.3159 36.7784 22.9249 37.5783C23.4037 38.194 23.7587 38.7605 23.99 39.2775C24.2212 39.7946 24.3156 40.3099 24.273 40.8236C24.2363 41.3269 24.0435 41.8865 23.6947 42.5026Z" fill="white"/>
<path d="M23.6394 35.5203L16.4319 29.6052L21.0566 23.97L28.2641 29.8851L27.4191 30.9148L21.0882 25.719L18.1649 29.281L24.4958 34.4768L23.6394 35.5203Z" fill="white"/>
<path d="M28.6697 29.3648L22.7284 22.1789L23.7549 21.3302C24.5425 22.2827 25.3179 23.2299 26.0809 24.1716C26.8456 25.0964 27.5911 25.9981 28.3175 26.8767C28.2349 26.4001 28.157 25.8728 28.0839 25.2948C28.0032 24.7076 27.9334 24.0958 27.8744 23.4595C27.8078 22.8139 27.7534 22.1738 27.7113 21.539C27.6615 20.8951 27.6301 20.2827 27.617 19.7018C27.6131 19.1134 27.6251 18.5818 27.6531 18.1071L28.5964 17.3272L34.5378 24.5131L33.5251 25.3504C32.9745 24.6845 32.4278 24.0233 31.8849 23.3667C31.3344 22.7008 30.7953 22.0488 30.2677 21.4106C29.7324 20.7633 29.2124 20.1344 28.7078 19.524C28.7132 20.0956 28.7429 20.7717 28.7967 21.5525C28.8598 22.3255 28.9358 23.1425 29.0246 24.0032C29.1151 24.8471 29.2118 25.6702 29.3147 26.4726C29.4192 27.2582 29.5233 27.9584 29.6269 28.5734L28.6697 29.3648Z" fill="white"/>
<path d="M36.5861 23.3667L32.4725 16.2847L29.8576 17.8035L29.288 16.823L35.7163 13.0891L36.2859 14.0697L33.6399 15.6066L37.7534 22.6886L36.5861 23.3667Z" fill="white"/>
<path d="M42.7294 20.5439C42.3155 20.7046 41.8985 20.8407 41.4784 20.9522C41.0626 21.075 40.6761 21.1735 40.3188 21.2478C39.9614 21.3221 39.6579 21.3691 39.4081 21.3889L36.1127 12.8979L37.3712 12.4095L38.7063 15.8495C38.8748 15.7197 39.1383 15.5531 39.497 15.3495C39.8625 15.1304 40.2466 14.9427 40.6493 14.7864C41.1192 14.6041 41.5828 14.4885 42.0401 14.4397C42.5043 14.3754 42.9364 14.3944 43.3365 14.4965C43.7477 14.5944 44.1145 14.7931 44.4368 15.0928C44.7659 15.377 45.0303 15.7764 45.23 16.291C45.4298 16.8056 45.5118 17.2822 45.4761 17.7209C45.436 18.1483 45.2972 18.5369 45.0596 18.8865C44.822 19.2362 44.499 19.5482 44.0906 19.8225C43.6977 20.1037 43.244 20.3442 42.7294 20.5439ZM42.2958 19.4765C43.0118 19.1986 43.528 18.8373 43.8446 18.3927C44.1611 17.948 44.1979 17.4124 43.9547 16.786C43.7159 16.1707 43.3241 15.8079 42.7793 15.6975C42.2344 15.5872 41.6376 15.6579 40.9887 15.9097C40.6419 16.0443 40.2961 16.1979 39.9511 16.3704C39.6173 16.5385 39.3392 16.7173 39.1166 16.9067L40.3345 20.0446C40.4929 20.0217 40.7542 19.9654 41.1184 19.8755C41.4894 19.7701 41.8819 19.6371 42.2958 19.4765Z" fill="white"/>
<path d="M58.9921 13.4371C58.5365 13.4177 58.1452 13.299 57.8182 13.0809C57.5031 12.8634 57.2628 12.5829 57.0972 12.2396C56.9322 11.8843 56.8578 11.5148 56.8741 11.1311C56.8909 10.7355 56.9963 10.3736 57.1904 10.0456C57.3845 9.71751 57.6477 9.45845 57.9801 9.26838C58.3245 9.07883 58.7244 8.99372 59.18 9.01307C59.6356 9.03243 60.0209 9.15089 60.336 9.36845C60.663 9.58653 60.9093 9.86723 61.0749 10.2106C61.2405 10.5539 61.3149 10.9234 61.2981 11.319C61.2818 11.7027 61.1763 12.0645 60.9817 12.4046C60.7876 12.7326 60.5184 12.9915 60.174 13.181C59.8417 13.3711 59.4477 13.4564 58.9921 13.4371Z" fill="white"/>
<path d="M71.9553 20.0053L77.5311 8.84679L78.787 9.47437L76.2445 14.5625C76.824 14.396 77.4653 14.2 78.1683 13.9744C78.882 13.7542 79.593 13.5259 80.3013 13.2896C81.0204 13.0587 81.6911 12.8304 82.3136 12.6049C82.9361 12.3793 83.4566 12.1833 83.8751 12.0169L85.3726 12.7651C84.8896 12.9531 84.3155 13.1625 83.6501 13.3934C83.0008 13.619 82.3112 13.858 81.5814 14.1104C80.857 14.3521 80.1433 14.5857 79.4403 14.8113C78.7427 15.0261 78.1042 15.2168 77.5246 15.3833C77.8467 15.9198 78.1582 16.5584 78.4589 17.2989C78.7703 18.0448 79.0496 18.8282 79.2966 19.6492C79.5437 20.4703 79.7425 21.2672 79.8929 22.0399C80.0541 22.818 80.1455 23.5076 80.1671 24.1086L78.7341 23.3926C78.6588 22.6842 78.5325 21.9571 78.3552 21.2111C78.1779 20.4652 77.9631 19.7274 77.7107 18.9976C77.4583 18.2678 77.179 17.5783 76.873 16.929C76.5776 16.2851 76.2609 15.7109 75.9227 15.2066L73.2112 20.6328L71.9553 20.0053Z" fill="white"/>
<path d="M76.832 26.2176C76.5907 26.0394 76.3853 25.8429 76.2157 25.6281C76.0461 25.4134 75.9418 25.2617 75.9028 25.1732L76.7723 24.4504C76.8088 24.5222 76.901 24.6499 77.0487 24.8336C77.1893 25.027 77.3513 25.1914 77.5347 25.3269C77.8919 25.5907 78.2351 25.7622 78.5645 25.8414C78.8939 25.9206 79.2478 25.906 79.6262 25.7976C80.0047 25.6892 80.4328 25.4833 80.9106 25.1798C81.0588 24.1107 81.2583 23.0124 81.5093 21.885C81.7699 20.7646 82.0702 19.6512 82.4101 18.5447C82.75 17.4382 83.1275 16.3818 83.5426 15.3755L84.6864 16.2204C84.4575 16.7525 84.2277 17.3362 83.9972 17.9715C83.7763 18.6139 83.5556 19.2863 83.3351 19.9888C83.1243 20.6983 82.9256 21.4318 82.7392 22.1892C82.5598 22.9369 82.3985 23.6905 82.2553 24.45C83.0888 23.8871 83.8564 23.3426 84.5582 22.8167C85.2671 22.2811 85.9651 21.73 86.6522 21.1634C87.3464 20.5871 88.0811 19.9661 88.8562 19.3004L89.9421 20.1025C89.0453 20.8723 88.1315 21.6146 87.2007 22.3294C86.2796 23.0513 85.364 23.7252 84.4542 24.3511C83.5611 24.9744 82.6808 25.5401 81.8133 26.048C81.1442 26.4489 80.5391 26.733 79.9979 26.9001C79.4567 27.0673 78.9337 27.0987 78.4289 26.9944C77.9338 26.8972 77.4015 26.6383 76.832 26.2176Z" fill="white"/>
<path d="M83.9924 27.192L90.751 20.7687L95.7731 26.053L89.0145 32.4762L88.0969 31.5107L94.0335 25.8686L90.859 22.5285L84.9224 28.1705L83.9924 27.192Z" fill="white"/>
<path d="M89.3352 32.7519L97.1834 27.7178L97.9026 28.839C96.8622 29.5063 95.8287 30.1621 94.802 30.8064C93.792 31.4543 92.8072 32.086 91.8476 32.7015C92.3307 32.6767 92.8635 32.6628 93.4461 32.6598C94.0388 32.6503 94.6545 32.6545 95.2933 32.6725C95.9422 32.684 96.5843 32.707 97.2194 32.7415C97.8647 32.7695 98.4765 32.812 99.0546 32.8688C99.6393 32.9357 100.166 33.0116 100.633 33.0964L101.294 34.1267L93.4461 39.1608L92.7366 38.0548C93.4639 37.5883 94.1861 37.1251 94.9032 36.6651C95.6305 36.1986 96.3426 35.7418 97.0395 35.2948C97.7465 34.8412 98.4334 34.4007 99.1 33.9731C98.5319 33.9098 97.8571 33.8579 97.0756 33.8175C96.3005 33.7871 95.4804 33.7643 94.6152 33.749C93.7666 33.7373 92.9378 33.7343 92.1288 33.74C91.3364 33.7493 90.6287 33.7684 90.0057 33.7974L89.3352 32.7519Z" fill="white"/>
<path d="M94.3764 41.4158L101.907 38.1972L100.719 35.4165L101.762 34.9709L104.683 41.8067L103.641 42.2524L102.438 39.4386L94.9069 42.6572L94.3764 41.4158Z" fill="white"/>
<path d="M96.4626 48.0211C96.3546 47.5904 96.2713 47.1597 96.2128 46.729C96.1427 46.3013 96.093 45.9055 96.0636 45.5417C96.0343 45.1779 96.0253 44.8709 96.0368 44.6206L104.871 42.4056L105.2 43.7151L101.62 44.6124C101.728 44.7957 101.861 45.0779 102.018 45.4591C102.19 45.849 102.329 46.2534 102.434 46.6725C102.556 47.1613 102.613 47.6357 102.605 48.0955C102.611 48.5641 102.539 48.9906 102.388 49.3748C102.239 49.7707 101.997 50.11 101.659 50.3925C101.336 50.6838 100.907 50.8965 100.372 51.0308C99.8364 51.165 99.3533 51.1872 98.9225 51.0972C98.5033 51.0044 98.135 50.8184 97.8176 50.5392C97.5002 50.26 97.2307 49.9007 97.0092 49.4614C96.779 49.0366 96.5968 48.5565 96.4626 48.0211ZM97.5756 47.7235C97.7624 48.4684 98.0567 49.0256 98.4586 49.3949C98.8605 49.7643 99.3873 49.8673 100.039 49.7038C100.679 49.5433 101.088 49.1996 101.265 48.6727C101.442 48.1458 101.446 47.5448 101.277 46.8697C101.187 46.5089 101.077 46.1466 100.949 45.7829C100.824 45.4308 100.681 45.1326 100.52 44.8882L97.2555 45.7068C97.2586 45.8669 97.282 46.1331 97.3259 46.5056C97.3844 46.8869 97.4676 47.2928 97.5756 47.7235Z" fill="white"/>
<path d="M73.2216 45.1967C72.8103 44.7078 72.2096 44.43 71.5728 44.43H45.868L44.6539 37.1328H36.4151C35.2245 37.1328 34.2539 38.1034 34.2539 39.2904C34.2539 39.8622 34.4902 40.4215 34.8871 40.8147C35.2984 41.2261 35.8378 41.4515 36.4151 41.4515H40.9918L42.9906 53.4353L43.3929 55.8688L44.7134 63.7701L45.7615 70.0549C45.9365 71.0994 46.833 71.8607 47.8902 71.8607H67.7303C68.7965 71.8607 69.6877 71.0995 69.8554 70.082C69.8789 69.9575 69.8915 69.833 69.8915 69.6941C69.8915 68.5071 68.921 67.5474 67.734 67.5474H49.7323L49.2344 64.5637H68.9536C70.0197 64.5637 70.9109 63.806 71.0823 62.7633L72.2314 55.8721L73.7143 46.9548C73.8207 46.327 73.6493 45.6902 73.238 45.1996L73.2216 45.1967ZM47.1792 52.3406L46.5839 48.7471H56.4659V52.3406H47.1792ZM56.4659 56.6539V60.2419H48.4996L47.9042 56.6539H56.4659ZM67.7029 56.6539L67.1075 60.2419H60.7848V56.6539H67.7029ZM60.7848 52.3406V48.7471H69.0237L68.4283 52.3406H60.7848ZM52.7483 75.7506C52.7483 77.3759 51.4278 78.6965 49.8024 78.6965C48.177 78.6965 46.8565 77.3759 46.8565 75.7506C46.8565 74.1252 48.177 72.8047 49.8024 72.8047C51.4278 72.8047 52.7483 74.1252 52.7483 75.7506ZM68.7512 75.7506C68.7512 77.3759 67.4307 78.6965 65.8053 78.6965C64.1799 78.6965 62.8594 77.3759 62.8594 75.7506C62.8594 74.1252 64.1799 72.8047 65.8053 72.8047C67.4307 72.8047 68.7512 74.1252 68.7512 75.7506Z" fill="white"/>
</svg>
