<svg width="113" height="161" viewBox="0 0 113 161" fill="none" xmlns="http://www.w3.org/2000/svg">
<path d="M70.75 31.839C70.75 35.5669 67.7279 38.589 64 38.589C60.2721 38.589 57.25 35.5669 57.25 31.839C57.25 31.199 57.4973 30.228 58.0011 28.9856C58.492 27.7751 59.1766 26.4252 59.9379 25.0698C61.3461 22.5631 62.9725 20.1152 64 18.6246C65.0275 20.1152 66.6539 22.5631 68.0621 25.0698C68.8234 26.4252 69.508 27.7751 69.9989 28.9856C70.5027 30.228 70.75 31.199 70.75 31.839Z" stroke="#0596D6" stroke-width="2.5"/>
<path d="M51.75 12.9543C51.75 15.8538 49.3995 18.2043 46.5 18.2043C43.6005 18.2043 41.25 15.8538 41.25 12.9543C41.25 12.4968 41.4248 11.7718 41.8097 10.8071C42.1827 9.87212 42.7068 8.82332 43.2985 7.75797C44.3766 5.81675 45.6368 3.89561 46.5 2.63193C47.3632 3.89561 48.6234 5.81675 49.7015 7.75797C50.2932 8.82332 50.8173 9.87212 51.1903 10.8071C51.5752 11.7718 51.75 12.4968 51.75 12.9543Z" stroke="#0596D6" stroke-width="2.5"/>
<path d="M82.75 18.1082C82.75 19.9031 81.2949 21.3582 79.5 21.3582C77.7051 21.3582 76.25 19.9031 76.25 18.1082C76.25 17.8853 76.3347 17.4778 76.566 16.8767C76.7873 16.3016 77.104 15.6465 77.4738 14.9635C78.1203 13.7697 78.892 12.5584 79.5 11.6488C80.108 12.5584 80.8797 13.7697 81.5262 14.9635C81.896 15.6465 82.2127 16.3016 82.434 16.8767C82.6653 17.4778 82.75 17.8853 82.75 18.1082Z" stroke="#0596D6" stroke-width="2.5"/>
<path d="M45.5 121.954C45.5 121.954 41.6824 124.926 39 126.454C28.1784 132.621 18.0874 124.932 9.5 133.954C1.94916 141.887 2.00001 158.954 2.00001 158.954" stroke="#0596D6" stroke-width="2.5" stroke-linecap="round"/>
<path d="M20 158.954L20.8133 146.755C20.9184 145.179 22.2273 143.954 23.8067 143.954H80" stroke="#0596D6" stroke-width="2.5" stroke-linecap="round"/>
<path d="M68 121.954C68 121.954 71.8176 124.926 74.5 126.454C76.5273 127.61 78.029 128.071 80 128.454M111.5 158.954C111.5 158.954 111.551 141.887 104 133.954C101.458 131.284 98.785 130.078 96 129.543" stroke="#0596D6" stroke-width="2.5" stroke-linecap="round"/>
<path d="M31 76.9543H29C27.3431 76.9543 26 78.2975 26 79.9543V90.9543C26 92.6112 27.3431 93.9543 29 93.9543H31" stroke="#0596D6" stroke-width="2.5" stroke-linecap="round"/>
<path d="M82 76.9543H84C85.6569 76.9543 87 78.2975 87 79.9543V90.9543C87 92.6112 85.6569 93.9543 84 93.9543H82" stroke="#0596D6" stroke-width="2.5" stroke-linecap="round"/>
<path d="M82 70.9543V87.8645C82 102.274 70.5833 113.954 56.5 113.954C42.4167 113.954 31 102.274 31 87.8645V70.9543" stroke="#0596D6" stroke-width="2.5" stroke-linecap="round"/>
<path d="M18 128.954L18 69.3053C18 45.9253 33.6774 31.4543 57 31.4543M96 158.454V112.635V69.3053C96 50.5304 86.3708 37.5006 70.5 33.0961" stroke="#0596D6" stroke-width="2.5" stroke-linecap="round"/>
<path d="M80.2461 97.4543L79.9983 158.454" stroke="#0596D6" stroke-width="2.5" stroke-linecap="round"/>
<path d="M37 52.9543C37 52.9543 49.5399 63.3839 58.5 66.9543C67.3937 70.4983 82 70.9543 82 70.9543" stroke="#0596D6" stroke-width="2.5" stroke-linecap="round"/>
<path d="M43.5 58.4543C43.5 58.4543 40.9262 63.0501 38.5 65.4543C36.0023 67.9294 31.203 70.458 31.203 70.458" stroke="#0596D6" stroke-width="2.5" stroke-linecap="round"/>
<path d="M45.5352 111.954L45.5352 121.454" stroke="#0596D6" stroke-width="2.5" stroke-linecap="round"/>
<path d="M67.1992 111.954L67.1992 121.454" stroke="#0596D6" stroke-width="2.5" stroke-linecap="round"/>
<path d="M39 81.0655C39 81.0655 41.7809 78.8782 44.5556 78.9564C47.1646 79.0299 49.5556 81.0655 49.5556 81.0655" stroke="#0596D6" stroke-width="2.5" stroke-linecap="round"/>
<path d="M50 98.954C50 98.954 53.6883 101.065 57.3684 100.954C60.8288 100.85 64 98.954 64 98.954" stroke="#0596D6" stroke-width="2.5" stroke-linecap="round"/>
<path d="M64 81.0655C64 81.0655 66.7809 78.8782 69.5556 78.9564C72.1646 79.0299 74.5556 81.0655 74.5556 81.0655" stroke="#0596D6" stroke-width="2.5" stroke-linecap="round"/>
<path d="M19.4937 23.6805L21 19.8614L22.5063 23.6805C22.735 24.2604 23.194 24.7194 23.7738 24.9481L27.593 26.4543L23.7738 27.9606C23.194 28.1893 22.7349 28.6483 22.5063 29.2282L21 33.0473L19.4937 29.2282C19.265 28.6483 18.806 28.1893 18.2262 27.9606L14.407 26.4543L18.2262 24.9481C18.806 24.7194 19.265 24.2604 19.4937 23.6805Z" stroke="#0596D6" stroke-width="2.5"/>
<path d="M100.761 40.5038L102 37.3614L103.239 40.5038L104.402 40.0451L103.239 40.5038C103.458 41.0579 103.896 41.4965 104.451 41.715L107.593 42.9543L104.451 44.1937C103.896 44.4122 103.458 44.8508 103.239 45.4049L102 48.5473L100.761 45.4049C100.542 44.8508 100.104 44.4122 99.5494 44.1937L99.0908 45.3565L99.5494 44.1937L96.407 42.9543L99.5494 41.715C100.104 41.4965 100.542 41.0579 100.761 40.5038Z" stroke="#0596D6" stroke-width="2.5"/>
</svg>
